<?xml version="1.0" encoding="utf-8"?>
<!-- Generator: Adobe Illustrator 23.0.5, SVG Export Plug-In . SVG Version: 6.00 Build 0)  -->
<svg version="1.1" id="Layer_1" xmlns="http://www.w3.org/2000/svg" xmlns:xlink="http://www.w3.org/1999/xlink" x="0px" y="0px"
	 viewBox="0 0 187.3 99.3" style="enable-background:new 0 0 187.3 99.3;" xml:space="preserve">
<style type="text/css">
	.st0{fill:#07223E;}
	.st1{display:none;}
	.st2{display:inline;fill:#5B5B5B;}
	.st3{font-family:'Raleway-SemiBold';}
	.st4{font-size:16.57px;}
	.st5{enable-background:new    ;}
	.st6{fill:#545454;}
</style>
<title>Asset 2</title>
<g>
	<g id="Layer_1-2">
		<g id="Layer_1-2-2">
			<g id="Layer_1-2-2-2">
				<path class="st0" d="M138.3,30.5c-0.5-4.6-3.6-8.5-8-10c-0.7-0.3-1.4-0.4-2.1-0.6v-0.2c0.5-2.6,0.5-5.2,0.1-7.8
					c-0.6-3.6-2.5-6.8-5.5-8.9c-3.4-2.5-7.7-3.5-11.9-2.6c-4.9,0.7-9,3.9-11,8.4c-0.2,0.4-0.3,0.7-0.5,1.1C94.5,7,89.5,6,84.5,9.5
					c-2.9,2.1-4.4,5.1-5.1,8.5h4.7c0.1-0.5,0.1-1,0.2-1.4c0.9-4.8,6.8-7.7,11.1-4.6c1.4,1,2.5,2.4,3.1,4c0.1,0.2,0.2,0.4,0.3,0.4h3
					c0.1-0.9,0.1-1.6,0.3-2.4c0.3-2.6,1.6-5,3.6-6.8c3.5-3.1,8.5-3.9,12.8-2c3.8,1.4,6.3,5.1,6,9.2c-0.1,1.9-0.5,3.8-1.3,5.6
					c-0.3,0.6-0.8,1.3-0.7,1.9s0.8,1.2,1.1,1.8c0.3,0.4,0.5,0.4,0.9,0.3c2-0.6,4.1-0.4,5.9,0.6c5.1,2.8,5.9,10.5,1.3,14.2
					c-2,1.7-4.4,2.5-7,2.5H95.4c-0.2,0-0.4,0-0.6,0.2c-0.9,1-1.8,2.1-2.8,3.3h0.5l31.2-0.3c1.6,0,3.2,0,4.8-0.2
					c2.9-0.4,5.5-1.8,7.4-4.1C138,37.3,138.9,33.8,138.3,30.5z"/>
				<path class="st0" d="M83.8,20.1h-4.7c-0.2,1.5-0.4,3-0.7,4.5l-1.5-0.2c-3.1-0.7-6.3,1.1-7.3,4.1c-0.6,1.6-1,3.4-1.2,5.1
					c-0.1,0.7-0.2,1.3-0.1,2c0.9,3.1,2.8,4.7,6.1,4.5c2.2-0.2,4.3-0.8,6.2-1.8c0.2-0.1,0.3-0.2,0.3-0.4c0.2-1.1,0.4-2.1,0.5-3.2
					l2-12C83.5,21.9,83.7,21,83.8,20.1z M77.2,33c-0.1,0.6-0.2,1.2-0.3,1.8c-0.2,0.9-1,1.5-1.9,1.5s-1.7-0.7-1.8-1.6
					c0-1,0.1-2.1,0.2-3.1c0.1-0.6,0.2-1.2,0.3-1.9c0.2-1.2,1.4-2.1,2.6-1.9l0,0c1,0.2,1.6,1.2,1.4,2.2C77.5,30.9,77.3,32,77.2,33z"
					/>
				<path class="st0" d="M10.6,24.3C8.3,24.2,6,24.6,4,25.6c-0.2,0.1-0.3,0.3-0.3,0.5c-0.4,2.4-0.7,4.7-1.1,7.1L0.9,44.6
					c1.5-0.1,3-0.1,4.4-0.2c0.1,0,0.3-0.2,0.3-0.3c0.1-0.6,0.2-1.2,0.2-1.9S6,40.7,6.1,40H7c1.5,0.1,3-0.1,4.4-0.5
					c2.3-0.5,4-2.5,4.3-4.8c0.1-1.1,0.4-2.3,0.6-3.4c0.1-0.7,0.1-1.4,0.1-2.1C15.8,26.1,13.4,24.5,10.6,24.3z M11.5,30.5
					c-0.1,1.2-0.3,2.4-0.5,3.6c-0.1,1.4-1.3,2.4-2.7,2.3l0,0H8.1c-0.9-0.2-1.3-0.7-1.3-1.9c0.2-0.9,0.4-2,0.6-3.1
					c0.1-0.6,0.3-1.3,0.4-1.9C7.9,28.6,8.6,28,9.5,28c0.8-0.1,1.5,0.3,1.8,1C11.5,29.5,11.5,30,11.5,30.5z"/>
				<path class="st0" d="M99.7,25.2c0.1-0.1,0.1-0.3,0.2-0.4h-4.6c-0.3,0-0.6,0.2-0.7,0.5c-0.9,2.4-1.8,4.8-2.8,7.2
					c-0.3,0.6-0.6,1.2-1,1.8c-0.3,0.4-0.6,0.3-0.7-0.2C90,33.9,90,33.6,90,33.4c-0.1-2.3-0.3-4.5-0.4-6.8c0-0.6-0.1-1.2-0.1-1.7
					h-4.6c0,0.5,0.1,0.9,0.1,1.3c0.4,3.4,0.8,6.9,1.3,10.3c0.2,1.3,0.6,2.4,2.1,2.7c0.1,0,0.3,0.3,0.3,0.4c0.2,0.9-0.3,1.8-1.2,2.1
					c-0.6,0.2-1.3,0.3-2,0.4c-0.9,0.1-1.8,0-2.7,0l-0.4,2.5c0.9,0.3,1.8,0.5,2.8,0.6c1,0.2,2.1,0.2,3.1,0.1c2-0.3,3.2-1.7,4-3.4
					C94.5,36.2,97.1,30.7,99.7,25.2z"/>
				<path class="st0" d="M62.8,25.5c-0.4,2.5-0.7,5-1.1,7.4c0,0.8-0.3,1.5-0.7,2.2c-0.5,0.7-1.4,0.9-2.1,0.6c-0.7-0.3-1.1-0.9-1-1.7
					c0.3-1.7,0.5-3.5,0.8-5.2c0.2-1.3,0.4-2.6,0.6-3.9h-4.5c0,0.1-0.1,0.3-0.1,0.4c-0.5,3.4-1,6.8-1.5,10.1
					c-0.3,1.4,0.4,2.8,1.6,3.5c0.7,0.3,1.4,0.5,2.1,0.6c1.1,0.1,2.1-0.2,3-0.7c0.4-0.4,1-0.4,1.4,0l0.1,0.1c0.1,0.1,0.3,0.2,0.5,0.2
					H65c0.2,0,0.4-0.1,0.4-0.3l0,0c0.1-0.8,0.2-1.5,0.3-2.3l1.3-9c0.1-0.9,0.2-1.7,0.4-2.6H63C62.9,25.2,62.8,25.4,62.8,25.5z"/>
				<path class="st0" d="M42.9,25.1c-2.9,1.7-4.7,4.9-4.7,8.3c0.1,0.5,0.1,1,0.2,1.5c0.8,4.3,4.6,6.3,8.4,4.3
					c3.7-2.1,5.7-6.4,4.7-10.6c-0.6-3-3.5-5-6.5-4.4l0,0C44.3,24.4,43.5,24.7,42.9,25.1z M47.1,32c-0.1,1.2-0.6,2.3-1.3,3.2
					c-0.4,0.7-1.3,0.9-2,0.5c-0.4-0.2-0.6-0.6-0.7-1c-0.1-0.4-0.2-0.9-0.3-1.3c0-1.4,0.4-2.9,1.3-4c0.2-0.2,0.4-0.4,0.6-0.5
					c0.6-0.5,1.4-0.4,1.8,0.2c0.1,0.1,0.1,0.2,0.2,0.3C47.1,30,47.3,31,47.1,32z"/>
				<path class="st0" d="M25.8,35.6c-1.8,0.2-2.9-0.5-3-2.3c-0.1-1-0.1-2,0-3c0.1-1.2,0.4-2.4,0.9-3.6c0.7-1.5,2.3-2.5,3.9-2.4
					c0.9,0.1,1.9,0.2,2.8,0.4c0.4-1.3,0.9-2.7,1.3-4.1c-2.4-0.7-4.9-0.9-7.3-0.5c-2.7,0.4-4.9,2.5-5.2,5.2c-0.2,1.2-0.5,2.3-0.7,3.5
					c-0.5,1.8-0.6,3.7-0.6,5.6c0.1,2.3,1.7,4.3,4,4.7c1.5,0.2,3,0.3,4.5,0.2c0.6-0.1,1.1-0.2,1.7-0.4c0.2-0.1,0.3-0.2,0.3-0.3
					c0.2-1.2,0.4-2.3,0.5-3.5h-0.4C27.6,35.3,26.7,35.5,25.8,35.6z"/>
				<path class="st0" d="M38.9,19.9h-4.4c-0.3,0-0.5,0.1-0.5,0.5c-1,5.5-2.1,11.1-3.2,16.6c-0.2,0.8-0.3,1.7-0.5,2.5
					c0.1,0,0.1,0.1,0.1,0.1h3.8c1,0,1,0,1.2-1c1-5.2,1.9-10.4,2.9-15.5L38.9,19.9z"/>
				<path class="st0" d="M114,31.2c-0.4,2.4-0.8,4.7-1.3,7h1.4c0-0.1,0-0.1,0-0.2c0.3-1.4,0.5-2.8,0.8-4.2c0.1-0.4,0.3-0.8,0.6-1.1
					c0.3-0.3,0.8-0.5,1.2-0.3c0.4,0.2,0.4,0.6,0.3,1c-0.1,0.8-0.3,1.7-0.4,2.5l-0.4,2.3h1.4c0-0.1,0-0.1,0-0.2
					c0.3-1.4,0.5-2.8,0.8-4.2c0.1-0.5,0.4-0.9,0.8-1.2c0.3-0.2,0.6-0.2,0.9-0.1c0.2,0.1,0.3,0.6,0.3,0.9c0,0.5-0.1,0.9-0.2,1.4
					l-0.6,3.5h1.5c0.2-1,0.4-2,0.6-2.9s0.3-1.8,0.4-2.8c0.1-0.7-0.4-1.4-1.1-1.5c-0.2,0-0.3,0-0.5,0.1c-0.6,0.2-1.2,0.5-1.8,0.9
					c-0.9-1.3-1.4-1.3-3.4,0.1c0-0.3,0-0.6,0.1-0.9L114,31.2z"/>
				<path class="st0" d="M109.6,38.2c1.7-0.8,2.7-2.5,2.7-4.4c0-1.7-0.7-2.6-2.3-2.8c-0.7-0.1-1.4,0.1-2,0.6
					c-1.4,1.1-2.1,2.9-1.9,4.7c0.1,1.3,1.2,2.3,2.6,2.2l0,0C109,38.5,109.3,38.4,109.6,38.2z M108.1,33.5c0.2-0.3,0.5-0.6,0.8-0.8
					c0.5-0.4,1.2-0.2,1.5,0.3l0,0c0.1,0.1,0.2,0.3,0.2,0.5c0.2,1,0,2-0.6,2.8c-0.3,0.6-1,0.9-1.7,0.7c-0.5-0.2-0.8-0.7-0.9-1.6
					C107.7,34.7,107.9,34.1,108.1,33.5z"/>
				<path class="st0" d="M103.3,32.5c0.6,0.1,0.7,0.5,0.7,1.1l1.4-0.3c0.1-1-0.5-1.9-1.4-2.1c-1.1-0.3-2.4,0.1-3.1,1.1
					c-1,1.2-1.4,2.8-1.2,4.3c0,1.1,0.9,1.9,2,1.9c1.6,0.1,3-1,3.3-2.5l-1.3-0.3c-0.2,0.3-0.3,0.6-0.5,0.8c-0.2,0.4-0.8,0.6-1.2,0.4
					c-0.3-0.1-0.6-0.4-0.7-0.8c-0.2-1,0-2.1,0.6-3C102.2,32.7,102.8,32.4,103.3,32.5z"/>
				<path class="st0" d="M96.7,37.4c0,0.6,0.4,1,0.9,1.1l0,0h0.1c0.6,0,1-0.5,1-1c0-0.6-0.5-1-1-1C97.1,36.4,96.7,36.9,96.7,37.4
					L96.7,37.4z"/>
			</g>
			<g class="st1">
				<text transform="matrix(1 0 0 1 0 71.64)" class="st2 st3 st4">M</text>
				<text transform="matrix(1 0 0 1 14.3 71.64)" class="st2 st3 st4">obile app</text>
				<text transform="matrix(1 0 0 1 91.88 71.64)" class="st2 st3 st4">t</text>
				<text transform="matrix(1 0 0 1 97.75 71.64)" class="st2 st3 st4">esting </text>
				<text transform="matrix(1 0 0 1 150.33 71.64)" class="st2 st3 st4">f</text>
				<text transform="matrix(1 0 0 1 156.22 71.64)" class="st2 st3 st4">r</text>
				<text transform="matrix(1 0 0 1 161.99 71.64)" class="st2 st3 st4">om</text>
				<text transform="matrix(1 0 0 1 0.92 95.57)" class="st2 st3 st4">a</text>
				<text transform="matrix(1 0 0 1 10.27 95.57)" class="st2 st3 st4">n</text>
				<text transform="matrix(1 0 0 1 19.96 95.57)" class="st2 st3 st4">ywhe</text>
				<text transform="matrix(1 0 0 1 62.53 95.57)" class="st2 st3 st4">r</text>
				<text transform="matrix(1 0 0 1 68.29 95.57)" class="st2 st3 st4">e, a</text>
				<text transform="matrix(1 0 0 1 95.25 95.57)" class="st2 st3 st4">n</text>
				<text transform="matrix(1 0 0 1 104.95 95.57)" class="st2 st3 st4">ytime</text>
			</g>
		</g>
	</g>
	<g class="st5">
		<path class="st6" d="M1.2,73.4V61.9h2.3L6.2,70c0.3,0.8,0.4,1.3,0.5,1.7c0.1-0.4,0.3-1,0.6-1.8l2.8-8h2v11.5h-1.5v-9.6l-3.3,9.6H6
			l-3.3-9.8v9.8H1.2z"/>
		<path class="st6" d="M13.9,69.2c0-1.5,0.4-2.7,1.3-3.4c0.7-0.6,1.6-0.9,2.6-0.9c1.1,0,2.1,0.4,2.8,1.1s1.1,1.8,1.1,3.1
			c0,1.1-0.2,1.9-0.5,2.5c-0.3,0.6-0.8,1.1-1.4,1.4s-1.3,0.5-2,0.5c-1.2,0-2.1-0.4-2.8-1.1C14.3,71.7,13.9,70.6,13.9,69.2z
			 M15.4,69.2c0,1.1,0.2,1.9,0.7,2.4c0.5,0.5,1.1,0.8,1.8,0.8c0.7,0,1.3-0.3,1.7-0.8s0.7-1.3,0.7-2.4c0-1-0.2-1.8-0.7-2.3
			c-0.5-0.5-1-0.8-1.7-0.8c-0.7,0-1.3,0.3-1.8,0.8C15.6,67.4,15.4,68.2,15.4,69.2z"/>
		<path class="st6" d="M24.7,73.4h-1.3V61.9h1.4V66c0.6-0.7,1.4-1.1,2.3-1.1c0.5,0,1,0.1,1.5,0.3s0.8,0.5,1.1,0.9
			c0.3,0.4,0.5,0.8,0.7,1.4c0.2,0.5,0.3,1.1,0.3,1.7c0,1.4-0.4,2.5-1.1,3.3c-0.7,0.8-1.6,1.2-2.5,1.2c-1,0-1.8-0.4-2.3-1.2V73.4z
			 M24.7,69.2c0,1,0.1,1.7,0.4,2.2c0.4,0.7,1,1.1,1.8,1.1c0.6,0,1.1-0.3,1.6-0.8c0.4-0.5,0.7-1.3,0.7-2.4c0-1.1-0.2-1.9-0.6-2.4
			s-1-0.8-1.6-0.8c-0.6,0-1.1,0.3-1.6,0.8C24.9,67.4,24.7,68.2,24.7,69.2z"/>
		<path class="st6" d="M32.3,63.5v-1.6h1.4v1.6H32.3z M32.3,73.4v-8.3h1.4v8.3H32.3z"/>
		<path class="st6" d="M35.8,73.4V61.9h1.4v11.5H35.8z"/>
		<path class="st6" d="M45.1,70.7l1.5,0.2c-0.2,0.9-0.7,1.5-1.3,2c-0.6,0.5-1.4,0.7-2.4,0.7c-1.2,0-2.2-0.4-2.9-1.1
			c-0.7-0.8-1.1-1.8-1.1-3.2c0-1.4,0.4-2.5,1.1-3.3c0.7-0.8,1.7-1.2,2.8-1.2c1.1,0,2,0.4,2.7,1.1c0.7,0.8,1.1,1.8,1.1,3.2
			c0,0.1,0,0.2,0,0.4h-6.2c0.1,0.9,0.3,1.6,0.8,2.1c0.5,0.5,1,0.7,1.7,0.7c0.5,0,1-0.1,1.3-0.4C44.6,71.7,44.9,71.3,45.1,70.7z
			 M40.5,68.4h4.6c-0.1-0.7-0.2-1.2-0.5-1.6c-0.4-0.5-1-0.8-1.7-0.8c-0.6,0-1.2,0.2-1.6,0.7C40.8,67.1,40.5,67.7,40.5,68.4z"/>
		<path class="st6" d="M58.3,72.4c-0.5,0.4-1,0.8-1.5,0.9c-0.5,0.2-1,0.3-1.6,0.3c-0.9,0-1.6-0.2-2.1-0.7s-0.7-1-0.7-1.7
			c0-0.4,0.1-0.8,0.3-1.1c0.2-0.3,0.4-0.6,0.7-0.8c0.3-0.2,0.6-0.4,1-0.5c0.3-0.1,0.7-0.1,1.3-0.2c1.1-0.1,2-0.3,2.5-0.5
			c0-0.2,0-0.3,0-0.4c0-0.6-0.1-1-0.4-1.2c-0.4-0.3-0.9-0.5-1.6-0.5c-0.7,0-1.2,0.1-1.5,0.3c-0.3,0.2-0.6,0.6-0.7,1.2l-1.4-0.2
			c0.1-0.6,0.3-1.1,0.6-1.4s0.7-0.6,1.2-0.8c0.5-0.2,1.2-0.3,1.9-0.3c0.7,0,1.3,0.1,1.7,0.3c0.4,0.2,0.8,0.4,1,0.6
			c0.2,0.3,0.4,0.6,0.4,1c0,0.2,0.1,0.7,0.1,1.3v1.9c0,1.3,0,2.1,0.1,2.5s0.2,0.7,0.4,1h-1.5C58.4,73.1,58.3,72.8,58.3,72.4z
			 M58.1,69.2c-0.5,0.2-1.3,0.4-2.3,0.5c-0.6,0.1-1,0.2-1.2,0.3c-0.2,0.1-0.4,0.3-0.6,0.5c-0.1,0.2-0.2,0.4-0.2,0.7
			c0,0.4,0.1,0.7,0.4,0.9c0.3,0.3,0.7,0.4,1.3,0.4c0.5,0,1-0.1,1.5-0.4c0.4-0.2,0.7-0.6,0.9-1c0.2-0.3,0.2-0.8,0.2-1.4V69.2z"/>
		<path class="st6" d="M61.8,73.4v-8.3H63v1.2c0.6-0.9,1.5-1.4,2.7-1.4c0.5,0,1,0.1,1.4,0.3c0.4,0.2,0.7,0.4,0.9,0.7
			c0.2,0.3,0.4,0.6,0.4,1c0.1,0.3,0.1,0.7,0.1,1.4v5.1h-1.4v-5.1c0-0.6-0.1-1-0.2-1.3c-0.1-0.3-0.3-0.5-0.6-0.7s-0.6-0.3-1-0.3
			c-0.6,0-1.1,0.2-1.6,0.6c-0.4,0.4-0.7,1.1-0.7,2.2v4.5H61.8z"/>
		<path class="st6" d="M76.1,73.4v-1.1c-0.5,0.8-1.3,1.2-2.3,1.2c-0.7,0-1.3-0.2-1.8-0.5c-0.6-0.4-1-0.9-1.3-1.5
			c-0.3-0.7-0.5-1.4-0.5-2.3c0-0.8,0.1-1.6,0.4-2.3c0.3-0.7,0.7-1.2,1.2-1.6c0.6-0.4,1.2-0.5,1.9-0.5c0.5,0,0.9,0.1,1.3,0.3
			s0.7,0.5,1,0.8v-4.1h1.4v11.5H76.1z M71.6,69.2c0,1.1,0.2,1.9,0.7,2.4c0.4,0.5,1,0.8,1.6,0.8c0.6,0,1.1-0.3,1.6-0.8
			c0.4-0.5,0.6-1.3,0.6-2.3c0-1.1-0.2-2-0.7-2.5s-1-0.8-1.6-0.8c-0.6,0-1.2,0.3-1.6,0.8C71.8,67.3,71.6,68.1,71.6,69.2z"/>
		<path class="st6" d="M85.6,73.4l-2.5-8.3h1.5l1.3,4.8l0.5,1.8c0-0.1,0.2-0.7,0.4-1.7l1.3-4.9h1.5l1.2,4.8l0.4,1.6l0.5-1.6l1.4-4.8
			h1.4l-2.6,8.3h-1.5l-1.3-5L88.8,67l-1.7,6.4H85.6z"/>
		<path class="st6" d="M101.4,70.7l1.5,0.2c-0.2,0.9-0.7,1.5-1.3,2s-1.4,0.7-2.4,0.7c-1.2,0-2.2-0.4-2.9-1.1
			c-0.7-0.8-1.1-1.8-1.1-3.2c0-1.4,0.4-2.5,1.1-3.3s1.7-1.2,2.8-1.2c1.1,0,2,0.4,2.7,1.1c0.7,0.8,1.1,1.8,1.1,3.2c0,0.1,0,0.2,0,0.4
			h-6.2c0.1,0.9,0.3,1.6,0.8,2.1c0.5,0.5,1,0.7,1.7,0.7c0.5,0,1-0.1,1.3-0.4C100.9,71.7,101.2,71.3,101.4,70.7z M96.7,68.4h4.7
			c-0.1-0.7-0.2-1.2-0.5-1.6c-0.4-0.5-1-0.8-1.7-0.8c-0.6,0-1.2,0.2-1.6,0.7C97,67.1,96.8,67.7,96.7,68.4z"/>
		<path class="st6" d="M105.9,73.4h-1.3V61.9h1.4V66c0.6-0.7,1.4-1.1,2.3-1.1c0.5,0,1,0.1,1.5,0.3c0.5,0.2,0.8,0.5,1.1,0.9
			c0.3,0.4,0.5,0.8,0.7,1.4c0.2,0.5,0.3,1.1,0.3,1.7c0,1.4-0.4,2.5-1.1,3.3c-0.7,0.8-1.6,1.2-2.5,1.2c-1,0-1.8-0.4-2.3-1.2V73.4z
			 M105.9,69.2c0,1,0.1,1.7,0.4,2.2c0.4,0.7,1,1.1,1.8,1.1c0.6,0,1.1-0.3,1.6-0.8c0.4-0.5,0.7-1.3,0.7-2.4c0-1.1-0.2-1.9-0.6-2.4
			c-0.4-0.5-1-0.8-1.6-0.8c-0.6,0-1.2,0.3-1.6,0.8C106.1,67.4,105.9,68.2,105.9,69.2z"/>
		<path class="st6" d="M123.4,72.4c-0.5,0.4-1,0.8-1.5,0.9c-0.5,0.2-1,0.3-1.6,0.3c-0.9,0-1.6-0.2-2.1-0.7s-0.7-1-0.7-1.7
			c0-0.4,0.1-0.8,0.3-1.1c0.2-0.3,0.4-0.6,0.7-0.8c0.3-0.2,0.6-0.4,1-0.5c0.3-0.1,0.7-0.1,1.3-0.2c1.1-0.1,2-0.3,2.5-0.5
			c0-0.2,0-0.3,0-0.4c0-0.6-0.1-1-0.4-1.2c-0.4-0.3-0.9-0.5-1.6-0.5c-0.7,0-1.2,0.1-1.5,0.3c-0.3,0.2-0.6,0.6-0.7,1.2l-1.4-0.2
			c0.1-0.6,0.3-1.1,0.6-1.4c0.3-0.4,0.7-0.6,1.2-0.8s1.2-0.3,1.9-0.3c0.7,0,1.3,0.1,1.7,0.3c0.4,0.2,0.8,0.4,1,0.6
			c0.2,0.3,0.4,0.6,0.4,1c0,0.2,0.1,0.7,0.1,1.3v1.9c0,1.3,0,2.1,0.1,2.5s0.2,0.7,0.4,1h-1.5C123.6,73.1,123.5,72.8,123.4,72.4z
			 M123.3,69.2c-0.5,0.2-1.3,0.4-2.3,0.5c-0.6,0.1-1,0.2-1.2,0.3s-0.4,0.3-0.6,0.5s-0.2,0.4-0.2,0.7c0,0.4,0.1,0.7,0.4,0.9
			s0.7,0.4,1.3,0.4c0.5,0,1-0.1,1.5-0.4c0.4-0.2,0.7-0.6,0.9-1c0.2-0.3,0.2-0.8,0.2-1.4V69.2z"/>
		<path class="st6" d="M126.9,76.6V65.1h1.3v1.1c0.3-0.4,0.6-0.7,1-1c0.4-0.2,0.8-0.3,1.4-0.3c0.7,0,1.3,0.2,1.9,0.5
			c0.5,0.4,1,0.9,1.2,1.5c0.3,0.7,0.4,1.4,0.4,2.2c0,0.9-0.2,1.6-0.5,2.3c-0.3,0.7-0.8,1.2-1.3,1.6s-1.2,0.5-1.8,0.5
			c-0.5,0-0.9-0.1-1.3-0.3c-0.4-0.2-0.7-0.5-0.9-0.8v4.1H126.9z M128.2,69.3c0,1.1,0.2,1.9,0.7,2.4c0.4,0.5,1,0.8,1.6,0.8
			c0.6,0,1.2-0.3,1.6-0.8c0.4-0.5,0.7-1.4,0.7-2.5c0-1.1-0.2-1.9-0.7-2.4s-1-0.8-1.6-0.8c-0.6,0-1.1,0.3-1.6,0.8
			C128.4,67.4,128.2,68.2,128.2,69.3z"/>
		<path class="st6" d="M135.9,76.6V65.1h1.3v1.1c0.3-0.4,0.6-0.7,1-1c0.4-0.2,0.8-0.3,1.4-0.3c0.7,0,1.3,0.2,1.9,0.5
			c0.5,0.4,1,0.9,1.2,1.5c0.3,0.7,0.4,1.4,0.4,2.2c0,0.9-0.2,1.6-0.5,2.3c-0.3,0.7-0.8,1.2-1.3,1.6s-1.2,0.5-1.8,0.5
			c-0.5,0-0.9-0.1-1.3-0.3c-0.4-0.2-0.7-0.5-0.9-0.8v4.1H135.9z M137.1,69.3c0,1.1,0.2,1.9,0.7,2.4c0.4,0.5,1,0.8,1.6,0.8
			c0.6,0,1.2-0.3,1.6-0.8c0.4-0.5,0.7-1.4,0.7-2.5c0-1.1-0.2-1.9-0.7-2.4s-1-0.8-1.6-0.8c-0.6,0-1.1,0.3-1.6,0.8
			C137.4,67.4,137.1,68.2,137.1,69.3z"/>
		<path class="st6" d="M152.3,72.1l0.2,1.2c-0.4,0.1-0.8,0.1-1.1,0.1c-0.5,0-0.9-0.1-1.2-0.2c-0.3-0.2-0.5-0.4-0.6-0.6
			c-0.1-0.3-0.2-0.8-0.2-1.7v-4.8h-1v-1.1h1V63l1.4-0.8v2.9h1.4v1.1h-1.4V71c0,0.4,0,0.7,0.1,0.8c0,0.1,0.1,0.2,0.2,0.3
			c0.1,0.1,0.3,0.1,0.5,0.1C151.9,72.2,152.1,72.2,152.3,72.1z"/>
		<path class="st6" d="M159.4,70.7l1.5,0.2c-0.2,0.9-0.7,1.5-1.3,2c-0.6,0.5-1.4,0.7-2.4,0.7c-1.2,0-2.2-0.4-2.9-1.1
			c-0.7-0.8-1.1-1.8-1.1-3.2c0-1.4,0.4-2.5,1.1-3.3c0.7-0.8,1.7-1.2,2.8-1.2c1.1,0,2,0.4,2.7,1.1c0.7,0.8,1.1,1.8,1.1,3.2
			c0,0.1,0,0.2,0,0.4h-6.2c0.1,0.9,0.3,1.6,0.8,2.1c0.5,0.5,1,0.7,1.7,0.7c0.5,0,1-0.1,1.3-0.4C158.9,71.7,159.2,71.3,159.4,70.7z
			 M154.8,68.4h4.7c-0.1-0.7-0.2-1.2-0.5-1.6c-0.5-0.5-1-0.8-1.7-0.8c-0.6,0-1.2,0.2-1.6,0.7C155.1,67.1,154.8,67.7,154.8,68.4z"/>
		<path class="st6" d="M162.1,70.9l1.4-0.2c0.1,0.6,0.3,1,0.7,1.3c0.4,0.3,0.9,0.4,1.5,0.4c0.6,0,1.1-0.1,1.4-0.4s0.5-0.6,0.5-0.9
			c0-0.3-0.1-0.6-0.4-0.8c-0.2-0.1-0.7-0.3-1.4-0.5c-1-0.3-1.8-0.5-2.2-0.7c-0.4-0.2-0.7-0.5-0.9-0.8s-0.3-0.7-0.3-1.1
			c0-0.4,0.1-0.7,0.3-1s0.4-0.6,0.7-0.8c0.2-0.2,0.5-0.3,0.9-0.4c0.4-0.1,0.8-0.2,1.2-0.2c0.7,0,1.2,0.1,1.7,0.3s0.9,0.4,1.1,0.8
			c0.2,0.3,0.4,0.8,0.5,1.3l-1.4,0.2c-0.1-0.4-0.2-0.8-0.5-1c-0.3-0.2-0.7-0.4-1.3-0.4c-0.6,0-1.1,0.1-1.4,0.3
			c-0.3,0.2-0.4,0.5-0.4,0.8c0,0.2,0.1,0.3,0.2,0.5c0.1,0.2,0.3,0.3,0.5,0.4c0.1,0.1,0.6,0.2,1.2,0.4c1,0.3,1.7,0.5,2.1,0.7
			c0.4,0.2,0.7,0.4,0.9,0.7c0.2,0.3,0.3,0.7,0.3,1.2c0,0.5-0.1,0.9-0.4,1.3c-0.3,0.4-0.7,0.7-1.2,1c-0.5,0.2-1.1,0.3-1.8,0.3
			c-1.1,0-1.9-0.2-2.5-0.7C162.6,72.5,162.2,71.8,162.1,70.9z"/>
		<path class="st6" d="M173.8,72.1l0.2,1.2c-0.4,0.1-0.8,0.1-1.1,0.1c-0.5,0-0.9-0.1-1.2-0.2c-0.3-0.2-0.5-0.4-0.6-0.6
			s-0.2-0.8-0.2-1.7v-4.8h-1v-1.1h1V63l1.4-0.8v2.9h1.4v1.1h-1.4V71c0,0.4,0,0.7,0.1,0.8s0.1,0.2,0.2,0.3c0.1,0.1,0.3,0.1,0.5,0.1
			C173.3,72.2,173.5,72.2,173.8,72.1z"/>
		<path class="st6" d="M175.2,63.5v-1.6h1.4v1.6H175.2z M175.2,73.4v-8.3h1.4v8.3H175.2z"/>
		<path class="st6" d="M178.7,73.4v-8.3h1.3v1.2c0.6-0.9,1.5-1.4,2.7-1.4c0.5,0,1,0.1,1.4,0.3c0.4,0.2,0.7,0.4,0.9,0.7
			c0.2,0.3,0.4,0.6,0.4,1c0.1,0.3,0.1,0.7,0.1,1.4v5.1h-1.4v-5.1c0-0.6-0.1-1-0.2-1.3c-0.1-0.3-0.3-0.5-0.6-0.7
			c-0.3-0.2-0.6-0.3-1-0.3c-0.6,0-1.1,0.2-1.6,0.6c-0.4,0.4-0.7,1.1-0.7,2.2v4.5H178.7z"/>
		<path class="st6" d="M187.4,74.1l1.4,0.2c0.1,0.4,0.2,0.7,0.5,0.9c0.4,0.3,0.8,0.4,1.4,0.4c0.7,0,1.2-0.1,1.5-0.4s0.6-0.6,0.7-1.1
			c0.1-0.3,0.1-0.9,0.1-1.8c-0.6,0.7-1.4,1.1-2.3,1.1c-1.1,0-2-0.4-2.7-1.2c-0.6-0.8-0.9-1.8-0.9-3c0-0.8,0.1-1.5,0.4-2.2
			s0.7-1.2,1.3-1.6s1.2-0.5,1.9-0.5c1,0,1.8,0.4,2.4,1.2v-1h1.3v7.2c0,1.3-0.1,2.2-0.4,2.8c-0.3,0.5-0.7,1-1.3,1.3s-1.3,0.5-2.1,0.5
			c-1,0-1.8-0.2-2.4-0.7C187.7,75.7,187.4,75,187.4,74.1z M188.6,69.1c0,1.1,0.2,1.9,0.7,2.4s1,0.8,1.6,0.8c0.6,0,1.2-0.3,1.6-0.7
			c0.4-0.5,0.7-1.3,0.7-2.3c0-1-0.2-1.8-0.7-2.3c-0.5-0.5-1-0.8-1.6-0.8c-0.6,0-1.2,0.3-1.6,0.8C188.8,67.3,188.6,68.1,188.6,69.1z"
			/>
	</g>
	<g class="st5">
		<path class="st6" d="M1.4,92.7v-7.2H0.1v-1.1h1.2v-0.9c0-0.6,0-1,0.1-1.2c0.1-0.4,0.4-0.7,0.7-0.9S3.1,81,3.7,81
			c0.4,0,0.8,0,1.3,0.1l-0.2,1.2c-0.3-0.1-0.6-0.1-0.8-0.1c-0.4,0-0.7,0.1-0.9,0.3c-0.2,0.2-0.3,0.5-0.3,1v0.8h1.6v1.1H2.8v7.2H1.4z
			"/>
		<path class="st6" d="M5.5,92.7v-8.3h1.3v1.3c0.3-0.6,0.6-1,0.9-1.2s0.6-0.3,0.9-0.3c0.5,0,1,0.2,1.5,0.5l-0.5,1.3
			c-0.3-0.2-0.7-0.3-1-0.3c-0.3,0-0.6,0.1-0.8,0.3s-0.4,0.4-0.5,0.8c-0.2,0.5-0.2,1.1-0.2,1.6v4.4H5.5z"/>
		<path class="st6" d="M10.3,88.5c0-1.5,0.4-2.7,1.3-3.4c0.7-0.6,1.6-0.9,2.6-0.9c1.1,0,2.1,0.4,2.8,1.1s1.1,1.8,1.1,3.1
			c0,1.1-0.2,1.9-0.5,2.5c-0.3,0.6-0.8,1.1-1.4,1.4s-1.3,0.5-2,0.5c-1.2,0-2.1-0.4-2.8-1.1C10.7,91,10.3,89.9,10.3,88.5z M11.8,88.5
			c0,1.1,0.2,1.9,0.7,2.4c0.5,0.5,1.1,0.8,1.8,0.8c0.7,0,1.3-0.3,1.7-0.8s0.7-1.3,0.7-2.4c0-1-0.2-1.8-0.7-2.3
			c-0.5-0.5-1-0.8-1.7-0.8c-0.7,0-1.3,0.3-1.8,0.8C12,86.7,11.8,87.5,11.8,88.5z"/>
		<path class="st6" d="M19.8,92.7v-8.3h1.3v1.2c0.3-0.4,0.6-0.7,1-1c0.4-0.2,0.9-0.4,1.5-0.4c0.6,0,1.1,0.1,1.5,0.4
			c0.4,0.3,0.7,0.6,0.8,1.1c0.7-1,1.5-1.5,2.6-1.5c0.8,0,1.5,0.2,1.9,0.7c0.4,0.5,0.7,1.2,0.7,2.1v5.7h-1.4v-5.2c0-0.6,0-1-0.1-1.2
			c-0.1-0.2-0.3-0.4-0.5-0.6c-0.2-0.2-0.5-0.2-0.8-0.2c-0.6,0-1.1,0.2-1.5,0.6c-0.4,0.4-0.6,1-0.6,1.9v4.8h-1.4v-5.4
			c0-0.6-0.1-1.1-0.3-1.4s-0.6-0.5-1.1-0.5c-0.4,0-0.8,0.1-1.1,0.3s-0.6,0.5-0.7,0.9c-0.2,0.4-0.2,1-0.2,1.7v4.3H19.8z"/>
		<path class="st6" d="M43.1,91.7c-0.5,0.4-1,0.8-1.5,0.9c-0.5,0.2-1,0.3-1.6,0.3c-0.9,0-1.6-0.2-2.1-0.7s-0.7-1-0.7-1.7
			c0-0.4,0.1-0.8,0.3-1.1c0.2-0.3,0.4-0.6,0.7-0.8c0.3-0.2,0.6-0.4,1-0.5c0.3-0.1,0.7-0.1,1.3-0.2c1.1-0.1,2-0.3,2.5-0.5
			c0-0.2,0-0.3,0-0.4c0-0.6-0.1-1-0.4-1.2c-0.4-0.3-0.9-0.5-1.6-0.5c-0.7,0-1.2,0.1-1.5,0.3c-0.3,0.2-0.6,0.6-0.7,1.2l-1.4-0.2
			c0.1-0.6,0.3-1.1,0.6-1.4s0.7-0.6,1.2-0.8c0.5-0.2,1.2-0.3,1.9-0.3c0.7,0,1.3,0.1,1.7,0.3c0.4,0.2,0.8,0.4,1,0.6
			c0.2,0.3,0.4,0.6,0.4,1c0,0.2,0.1,0.7,0.1,1.3v1.9c0,1.3,0,2.1,0.1,2.5s0.2,0.7,0.4,1h-1.5C43.2,92.4,43.1,92.1,43.1,91.7z
			 M43,88.5c-0.5,0.2-1.3,0.4-2.3,0.5c-0.6,0.1-1,0.2-1.2,0.3c-0.2,0.1-0.4,0.3-0.6,0.5c-0.1,0.2-0.2,0.4-0.2,0.7
			c0,0.4,0.1,0.7,0.4,0.9c0.3,0.3,0.7,0.4,1.3,0.4c0.5,0,1-0.1,1.5-0.4c0.4-0.2,0.7-0.6,0.9-1c0.2-0.3,0.2-0.8,0.2-1.4V88.5z"/>
		<path class="st6" d="M46.6,92.7v-8.3h1.3v1.2c0.6-0.9,1.5-1.4,2.7-1.4c0.5,0,1,0.1,1.4,0.3c0.4,0.2,0.7,0.4,0.9,0.7
			c0.2,0.3,0.4,0.6,0.4,1c0.1,0.3,0.1,0.7,0.1,1.4v5.1h-1.4v-5.1c0-0.6-0.1-1-0.2-1.3c-0.1-0.3-0.3-0.5-0.6-0.7s-0.6-0.3-1-0.3
			c-0.6,0-1.1,0.2-1.6,0.6c-0.4,0.4-0.7,1.1-0.7,2.2v4.5H46.6z"/>
		<path class="st6" d="M55.4,95.9l-0.2-1.3c0.3,0.1,0.6,0.1,0.8,0.1c0.3,0,0.6-0.1,0.8-0.2c0.2-0.1,0.3-0.3,0.5-0.4
			c0.1-0.1,0.2-0.5,0.4-1.1c0-0.1,0.1-0.2,0.1-0.3l-3.2-8.3h1.5l1.7,4.8c0.2,0.6,0.4,1.3,0.6,1.9c0.2-0.6,0.4-1.3,0.6-1.9l1.8-4.9
			h1.4l-3.2,8.5c-0.3,0.9-0.6,1.5-0.8,1.9c-0.3,0.5-0.5,0.8-0.9,1c-0.3,0.2-0.7,0.3-1.2,0.3C56.1,96.1,55.8,96,55.4,95.9z"/>
		<path class="st6" d="M65.1,92.7l-2.5-8.3H64l1.3,4.8l0.5,1.8c0-0.1,0.2-0.7,0.4-1.7l1.3-4.9H69l1.2,4.8l0.4,1.6l0.5-1.6l1.4-4.8
			h1.4l-2.6,8.3h-1.5l-1.3-5l-0.3-1.4l-1.7,6.4H65.1z"/>
		<path class="st6" d="M75.1,92.7V81.2h1.4v4.1c0.7-0.8,1.5-1.1,2.5-1.1c0.6,0,1.2,0.1,1.6,0.4c0.5,0.2,0.8,0.6,1,1
			c0.2,0.4,0.3,1.1,0.3,1.9v5.3h-1.4v-5.3c0-0.7-0.2-1.2-0.5-1.5c-0.3-0.3-0.7-0.5-1.3-0.5c-0.4,0-0.8,0.1-1.2,0.3
			c-0.4,0.2-0.6,0.5-0.8,0.9c-0.2,0.4-0.2,0.9-0.2,1.5v4.6H75.1z"/>
		<path class="st6" d="M89.8,90l1.5,0.2c-0.2,0.9-0.7,1.5-1.3,2c-0.6,0.5-1.4,0.7-2.4,0.7c-1.2,0-2.2-0.4-2.9-1.1
			c-0.7-0.8-1.1-1.8-1.1-3.2c0-1.4,0.4-2.5,1.1-3.3c0.7-0.8,1.7-1.2,2.8-1.2c1.1,0,2,0.4,2.7,1.1c0.7,0.8,1.1,1.8,1.1,3.2
			c0,0.1,0,0.2,0,0.4H85c0.1,0.9,0.3,1.6,0.8,2.1c0.5,0.5,1,0.7,1.7,0.7c0.5,0,1-0.1,1.3-0.4C89.3,91,89.5,90.6,89.8,90z M85.1,87.7
			h4.6c-0.1-0.7-0.2-1.2-0.5-1.6c-0.4-0.5-1-0.8-1.7-0.8c-0.6,0-1.2,0.2-1.6,0.7C85.4,86.4,85.2,87,85.1,87.7z"/>
		<path class="st6" d="M93,92.7v-8.3h1.3v1.3c0.3-0.6,0.6-1,0.9-1.2s0.6-0.3,0.9-0.3c0.5,0,1,0.2,1.5,0.5L97,85.9
			c-0.3-0.2-0.7-0.3-1-0.3c-0.3,0-0.6,0.1-0.8,0.3c-0.2,0.2-0.4,0.4-0.5,0.8c-0.2,0.5-0.2,1.1-0.2,1.6v4.4H93z"/>
		<path class="st6" d="M104,90l1.5,0.2c-0.2,0.9-0.7,1.5-1.3,2s-1.4,0.7-2.4,0.7c-1.2,0-2.2-0.4-2.9-1.1c-0.7-0.8-1.1-1.8-1.1-3.2
			c0-1.4,0.4-2.5,1.1-3.3s1.7-1.2,2.8-1.2c1.1,0,2,0.4,2.7,1.1c0.7,0.8,1.1,1.8,1.1,3.2c0,0.1,0,0.2,0,0.4h-6.2
			c0.1,0.9,0.3,1.6,0.8,2.1c0.5,0.5,1,0.7,1.7,0.7c0.5,0,1-0.1,1.3-0.4C103.5,91,103.8,90.6,104,90z M99.4,87.7h4.7
			c-0.1-0.7-0.2-1.2-0.5-1.6c-0.4-0.5-1-0.8-1.7-0.8c-0.6,0-1.2,0.2-1.6,0.7C99.7,86.4,99.5,87,99.4,87.7z"/>
		<path class="st6" d="M107.6,92.7v-1.6h1.6v1.6c0,0.6-0.1,1.1-0.3,1.4s-0.5,0.6-1,0.8l-0.4-0.6c0.3-0.1,0.5-0.3,0.7-0.6
			c0.1-0.3,0.2-0.6,0.2-1.1H107.6z"/>
		<path class="st6" d="M121.6,91.7c-0.5,0.4-1,0.8-1.5,0.9c-0.5,0.2-1,0.3-1.6,0.3c-0.9,0-1.6-0.2-2.1-0.7s-0.7-1-0.7-1.7
			c0-0.4,0.1-0.8,0.3-1.1c0.2-0.3,0.4-0.6,0.7-0.8c0.3-0.2,0.6-0.4,1-0.5c0.3-0.1,0.7-0.1,1.3-0.2c1.1-0.1,2-0.3,2.5-0.5
			c0-0.2,0-0.3,0-0.4c0-0.6-0.1-1-0.4-1.2c-0.4-0.3-0.9-0.5-1.6-0.5c-0.7,0-1.2,0.1-1.5,0.3c-0.3,0.2-0.5,0.6-0.7,1.2l-1.4-0.2
			c0.1-0.6,0.3-1.1,0.6-1.4c0.3-0.4,0.7-0.6,1.2-0.8c0.5-0.2,1.2-0.3,1.9-0.3c0.7,0,1.3,0.1,1.7,0.3c0.4,0.2,0.8,0.4,1,0.6
			c0.2,0.3,0.4,0.6,0.4,1c0,0.2,0.1,0.7,0.1,1.3v1.9c0,1.3,0,2.1,0.1,2.5s0.2,0.7,0.4,1h-1.5C121.8,92.4,121.7,92.1,121.6,91.7z
			 M121.5,88.5c-0.5,0.2-1.3,0.4-2.3,0.5c-0.6,0.1-1,0.2-1.2,0.3c-0.2,0.1-0.4,0.3-0.6,0.5c-0.1,0.2-0.2,0.4-0.2,0.7
			c0,0.4,0.1,0.7,0.4,0.9c0.3,0.3,0.7,0.4,1.3,0.4c0.5,0,1-0.1,1.5-0.4c0.4-0.2,0.7-0.6,0.9-1c0.2-0.3,0.2-0.8,0.2-1.4V88.5z"/>
		<path class="st6" d="M125.1,92.7v-8.3h1.3v1.2c0.6-0.9,1.5-1.4,2.7-1.4c0.5,0,1,0.1,1.4,0.3c0.4,0.2,0.7,0.4,0.9,0.7
			c0.2,0.3,0.4,0.6,0.4,1c0.1,0.3,0.1,0.7,0.1,1.4v5.1h-1.4v-5.1c0-0.6-0.1-1-0.2-1.3s-0.3-0.5-0.6-0.7c-0.3-0.2-0.6-0.3-1-0.3
			c-0.6,0-1.1,0.2-1.6,0.6c-0.4,0.4-0.7,1.1-0.7,2.2v4.5H125.1z"/>
		<path class="st6" d="M134,95.9l-0.2-1.3c0.3,0.1,0.6,0.1,0.8,0.1c0.3,0,0.6-0.1,0.8-0.2c0.2-0.1,0.3-0.3,0.5-0.4
			c0.1-0.1,0.2-0.5,0.4-1.1c0-0.1,0.1-0.2,0.1-0.3l-3.2-8.3h1.5l1.7,4.8c0.2,0.6,0.4,1.3,0.6,1.9c0.2-0.6,0.4-1.3,0.6-1.9l1.8-4.9
			h1.4l-3.2,8.5c-0.3,0.9-0.6,1.5-0.8,1.9c-0.3,0.5-0.5,0.8-0.9,1c-0.3,0.2-0.7,0.3-1.2,0.3C134.6,96.1,134.3,96,134,95.9z"/>
		<path class="st6" d="M145.2,91.4l0.2,1.2c-0.4,0.1-0.8,0.1-1.1,0.1c-0.5,0-0.9-0.1-1.2-0.2c-0.3-0.2-0.5-0.4-0.6-0.6
			s-0.2-0.8-0.2-1.7v-4.8h-1v-1.1h1v-2.1l1.4-0.8v2.9h1.4v1.1h-1.4v4.9c0,0.4,0,0.7,0.1,0.8c0.1,0.1,0.1,0.2,0.2,0.3
			c0.1,0.1,0.3,0.1,0.5,0.1C144.7,91.5,144.9,91.5,145.2,91.4z"/>
		<path class="st6" d="M146.6,82.8v-1.6h1.4v1.6H146.6z M146.6,92.7v-8.3h1.4v8.3H146.6z"/>
		<path class="st6" d="M150.1,92.7v-8.3h1.3v1.2c0.3-0.4,0.6-0.7,1-1c0.4-0.2,0.9-0.4,1.5-0.4c0.6,0,1.1,0.1,1.5,0.4
			c0.4,0.3,0.7,0.6,0.8,1.1c0.7-1,1.5-1.5,2.6-1.5c0.8,0,1.5,0.2,1.9,0.7c0.4,0.5,0.7,1.2,0.7,2.1v5.7H160v-5.2c0-0.6,0-1-0.1-1.2
			c-0.1-0.2-0.3-0.4-0.5-0.6c-0.2-0.2-0.5-0.2-0.8-0.2c-0.6,0-1.1,0.2-1.5,0.6c-0.4,0.4-0.6,1-0.6,1.9v4.8h-1.4v-5.4
			c0-0.6-0.1-1.1-0.3-1.4s-0.6-0.5-1.1-0.5c-0.4,0-0.8,0.1-1.1,0.3c-0.3,0.2-0.6,0.5-0.7,0.9c-0.2,0.4-0.2,1-0.2,1.7v4.3H150.1z"/>
		<path class="st6" d="M169.2,90l1.5,0.2c-0.2,0.9-0.7,1.5-1.3,2c-0.6,0.5-1.4,0.7-2.4,0.7c-1.2,0-2.2-0.4-2.9-1.1
			c-0.7-0.8-1.1-1.8-1.1-3.2c0-1.4,0.4-2.5,1.1-3.3c0.7-0.8,1.7-1.2,2.8-1.2c1.1,0,2,0.4,2.7,1.1c0.7,0.8,1.1,1.8,1.1,3.2
			c0,0.1,0,0.2,0,0.4h-6.2c0.1,0.9,0.3,1.6,0.8,2.1c0.5,0.5,1,0.7,1.7,0.7c0.5,0,1-0.1,1.3-0.4C168.7,91,169,90.6,169.2,90z
			 M164.6,87.7h4.6c-0.1-0.7-0.2-1.2-0.5-1.6c-0.4-0.5-1-0.8-1.7-0.8c-0.6,0-1.2,0.2-1.6,0.7C164.9,86.4,164.6,87,164.6,87.7z"/>
	</g>
</g>
</svg>
