<svg version="1.1" xmlns="http://www.w3.org/2000/svg" xmlns:xlink="http://www.w3.org/1999/xlink" viewBox="0 0 172 172"><g fill="none" fill-rule="nonzero" stroke="none" stroke-width="1" stroke-linecap="butt" stroke-linejoin="miter" stroke-miterlimit="10" stroke-dasharray="" stroke-dashoffset="0" font-family="none" font-weight="none" font-size="none" text-anchor="none" style="mix-blend-mode: normal"><path d="M0,172v-172h172v172z" fill="none"></path><g><g><path d="M86,0c-47.49649,0 -86,38.50351 -86,86c0,47.49649 38.50351,86 86,86c47.49649,0 86,-38.50351 86,-86c0,-47.49649 -38.50351,-86 -86,-86z" fill="#666666"></path><path d="M120.1119,72.8119c0,18.83948 -15.27242,34.1119 -34.1119,34.1119c-18.83948,0 -34.1119,-15.27242 -34.1119,-34.1119c0,-18.83948 15.27242,-34.1119 34.1119,-34.1119c9.04739,-0.00114 17.72455,3.59242 24.12202,9.98988c6.39747,6.39747 9.99103,15.07463 9.98988,24.12202" fill="#ffffff"></path><path d="M86,121.5481c-22.58053,-0.14426 -43.96567,10.13343 -57.9597,27.8554c32.76656,30.12912 83.15284,30.12912 115.9194,0c-13.99403,-17.72197 -35.37917,-27.99966 -57.9597,-27.8554z" fill="#ffffff"></path></g></g></g></svg>