<?xml version="1.0" encoding="utf-8"?>
<!-- Generator: Adobe Illustrator 23.0.5, SVG Export Plug-In . SVG Version: 6.00 Build 0)  -->
<svg version="1.1" id="Layer_1" xmlns="http://www.w3.org/2000/svg" xmlns:xlink="http://www.w3.org/1999/xlink" x="0px" y="0px"
	 viewBox="0 0 187.3 99.3" style="enable-background:new 0 0 187.3 99.3;" xml:space="preserve">
<style type="text/css">
	.st0{fill:#07223E;}
	.st1{display:none;fill:#5B5B5B;enable-background:new    ;}
	.st2{font-family:'Raleway-SemiBold';}
	.st3{font-size:16.57px;}
	.st4{enable-background:new    ;}
	.st5{fill:#545454;}
</style>
<title>Asset 1</title>
<g>
	<g>
		<g id="Layer_1-2">
			<g id="Layer_1-2-2">
				<path class="st0" d="M186.8,30.5c-0.5-4.6-3.6-8.5-8-10c-0.7-0.3-1.4-0.4-2.1-0.6v-0.2c0.5-2.6,0.5-5.2,0.1-7.8
					c-0.6-3.6-2.5-6.8-5.5-8.9c-3.4-2.5-7.7-3.5-11.9-2.6c-4.9,0.7-9,3.9-11,8.4c-0.2,0.4-0.3,0.7-0.5,1.1C143,7,138,6,133,9.5
					c-2.9,2.1-4.4,5.1-5.1,8.5h4.7c0.1-0.5,0.1-1,0.1-1.4c0.9-4.8,6.8-7.7,11.1-4.6c1.4,1,2.5,2.4,3.1,4c0.1,0.2,0.2,0.4,0.4,0.4
					c1,0,2,0,3,0c0.1-0.9,0.1-1.6,0.3-2.4c0.3-2.6,1.6-5,3.6-6.8c3.5-3.1,8.5-3.9,12.8-2c3.8,1.4,6.3,5.1,5.9,9.2
					c-0.1,1.9-0.5,3.8-1.3,5.6c-0.3,0.6-0.8,1.3-0.7,1.9s0.8,1.2,1.1,1.8c0.3,0.4,0.5,0.4,0.9,0.3c2-0.6,4.1-0.4,5.9,0.6
					c5.1,2.8,5.9,10.5,1.3,14.2c-1.9,1.6-4.4,2.5-6.9,2.5c-7.6,0-15.2,0-22.8,0h-6.6c-0.2,0-0.4,0-0.6,0.2c-0.9,1-1.8,2.1-2.8,3.3
					h0.5l31.2-0.3c1.6,0,3.2,0,4.8-0.2c2.9-0.4,5.5-1.8,7.4-4.1C186.6,37.3,187.4,33.8,186.8,30.5z"/>
				<path class="st0" d="M132.3,20.1h-4.7c-0.2,1.5-0.4,3-0.7,4.5l-1.5-0.2c-3.1-0.7-6.3,1.1-7.3,4.1c-0.7,1.6-1,3.4-1.2,5.1
					c-0.1,0.7-0.2,1.3-0.1,2c0.9,3.1,2.8,4.7,6.1,4.5c2.2-0.2,4.3-0.8,6.2-1.8c0.2-0.1,0.3-0.2,0.4-0.4c0.2-1.1,0.4-2.1,0.5-3.2
					l1.9-12C132,21.9,132.1,21,132.3,20.1z M125.7,33c-0.1,0.6-0.2,1.2-0.3,1.8c-0.2,0.9-1,1.5-1.9,1.5s-1.7-0.7-1.8-1.6
					c0-1,0.1-2.1,0.2-3.1c0.1-0.6,0.2-1.2,0.3-1.9c0.2-1.2,1.4-2.1,2.6-1.9l0,0c1,0.2,1.6,1.2,1.4,2.2C126,30.9,125.8,31.9,125.7,33
					z"/>
				<path class="st0" d="M59.1,24.3c-2.2-0.1-4.5,0.3-6.5,1.3c-0.2,0.1-0.3,0.3-0.3,0.5c-0.4,2.4-0.7,4.7-1.1,7.1l-1.8,11.5
					c1.5-0.1,3-0.1,4.4-0.2c0.1,0,0.3-0.2,0.3-0.3c0.1-0.6,0.2-1.2,0.2-1.9s0.2-1.5,0.3-2.2h0.9c1.5,0.1,3-0.1,4.4-0.5
					c2.3-0.5,4-2.5,4.3-4.8c0.2-1.1,0.4-2.3,0.6-3.4c0.1-0.7,0.1-1.4,0.1-2.1C64.3,26.1,61.9,24.5,59.1,24.3z M60,30.5
					c-0.1,1.2-0.3,2.4-0.5,3.6c-0.1,1.4-1.3,2.4-2.7,2.3c-0.1,0-0.1,0-0.2,0c-0.9-0.2-1.3-0.7-1.3-1.9c0.2-0.9,0.4-2,0.6-3.1
					c0.1-0.6,0.3-1.3,0.4-1.9c0.1-0.9,0.9-1.5,1.7-1.5c0.8-0.1,1.5,0.3,1.8,1.1C60,29.5,60,30,60,30.5z"/>
				<path class="st0" d="M148.1,25.1c0.1-0.1,0.1-0.3,0.2-0.4c-1.6,0-3.1,0-4.6,0c-0.3,0-0.6,0.2-0.7,0.5c-0.9,2.4-1.8,4.8-2.8,7.2
					c-0.3,0.6-0.6,1.2-1,1.8c-0.3,0.4-0.6,0.3-0.7-0.2c-0.1-0.2-0.1-0.5-0.1-0.7c-0.1-2.3-0.3-4.5-0.4-6.8c0-0.6-0.1-1.2-0.1-1.7
					h-4.6c0.1,0.5,0.1,0.9,0.1,1.3c0.4,3.4,0.9,6.9,1.3,10.3c0.1,1.3,0.6,2.4,2.1,2.7c0.1,0,0.3,0.3,0.3,0.4
					c0.2,0.9-0.3,1.8-1.2,2.1c-0.6,0.2-1.3,0.3-2,0.4c-0.9,0.1-1.8,0-2.7,0l-0.4,2.5c0.9,0.3,1.8,0.5,2.8,0.6c1,0.2,2.1,0.2,3.2,0.1
					c2-0.3,3.2-1.7,4-3.4C143.1,36.2,145.6,30.7,148.1,25.1z"/>
				<path class="st0" d="M111.3,25.5c-0.4,2.5-0.7,4.9-1.1,7.4c0,0.8-0.3,1.5-0.7,2.2c-0.5,0.7-1.4,0.9-2.1,0.6
					c-0.7-0.3-1.1-0.9-1-1.7c0.3-1.7,0.5-3.5,0.8-5.2c0.2-1.3,0.4-2.6,0.6-3.9h-4.4c0,0.1-0.1,0.3-0.1,0.4c-0.5,3.4-1,6.8-1.4,10.1
					c-0.3,1.4,0.4,2.8,1.6,3.5c0.7,0.3,1.4,0.5,2.1,0.6c1,0.1,2.1-0.1,3-0.7c0.7-0.4,1-0.3,1.5,0.2c0.1,0.1,0.3,0.2,0.5,0.2
					c1,0,2,0,3.1,0c0.2,0,0.4-0.1,0.4-0.3l0,0c0.1-0.8,0.2-1.5,0.3-2.3l1.3-9c0.1-0.9,0.2-1.7,0.4-2.6h-4.5
					C111.4,25.2,111.3,25.4,111.3,25.5z"/>
				<path class="st0" d="M91.4,25.1c-2.9,1.7-4.7,4.9-4.7,8.3c0.1,0.5,0.1,1,0.2,1.5c0.8,4.3,4.6,6.3,8.4,4.3
					c3.7-2.1,5.7-6.4,4.7-10.6c-0.6-3-3.5-5-6.5-4.4C92.8,24.4,92,24.7,91.4,25.1z M95.6,32c-0.1,1.2-0.6,2.3-1.3,3.2
					c-1,1.1-2.2,0.9-2.7-0.6c-0.1-0.4-0.2-0.9-0.3-1.3c0-1.4,0.4-2.9,1.3-4c0.2-0.2,0.4-0.4,0.6-0.5c0.6-0.5,1.4-0.4,1.8,0.2
					c0.1,0.1,0.1,0.2,0.2,0.3C95.6,30,95.8,31,95.6,32z"/>
				<path class="st0" d="M74.3,35.6c-1.8,0.2-2.9-0.5-3-2.3c-0.1-1-0.1-2,0-3c0.1-1.2,0.4-2.4,0.9-3.6c0.7-1.5,2.3-2.5,3.9-2.4
					c0.9,0.1,1.9,0.2,2.8,0.4c0.4-1.3,0.9-2.7,1.3-4.1c-2.4-0.7-4.9-0.9-7.3-0.5c-2.7,0.4-4.9,2.5-5.2,5.2c-0.2,1.2-0.5,2.3-0.7,3.5
					c-0.5,1.8-0.7,3.7-0.6,5.6c0.1,2.3,1.7,4.3,4,4.7c1.5,0.2,3,0.3,4.4,0.2c0.6-0.1,1.1-0.2,1.7-0.4c0.2-0.1,0.3-0.2,0.3-0.3
					c0.2-1.2,0.3-2.3,0.5-3.5h-0.4C76.1,35.3,75.2,35.5,74.3,35.6z"/>
				<path class="st0" d="M87.4,19.9c-1.5,0-3,0-4.4,0c-0.3,0-0.5,0.1-0.5,0.5c-1,5.5-2.1,11.1-3.2,16.6c-0.2,0.8-0.3,1.7-0.5,2.5
					c0.1,0,0.1,0.1,0.2,0.1h3.8c1,0,1,0,1.2-1c1-5.2,1.9-10.3,2.9-15.5L87.4,19.9z"/>
				<path class="st0" d="M162.5,31.2c-0.4,2.4-0.9,4.7-1.3,7h1.4c0-0.1,0-0.2,0.1-0.2c0.3-1.4,0.5-2.8,0.8-4.2
					c0.1-0.4,0.3-0.8,0.6-1.1s0.8-0.5,1.1-0.3c0.4,0.2,0.4,0.6,0.3,1c-0.1,0.8-0.3,1.7-0.4,2.5l-0.4,2.3h1.4c0-0.1,0-0.1,0.1-0.2
					c0.3-1.4,0.5-2.8,0.9-4.2c0.1-0.5,0.4-0.9,0.8-1.2c0.3-0.2,0.6-0.2,0.9-0.1c0.2,0.1,0.3,0.6,0.3,0.9c0,0.5-0.1,0.9-0.2,1.4
					c-0.2,1.2-0.4,2.3-0.6,3.5h1.5c0.2-1,0.4-2,0.6-2.9c0.2-0.9,0.3-1.8,0.4-2.8c0.1-0.7-0.5-1.4-1.2-1.4c-0.2,0-0.3,0-0.5,0.1
					c-0.6,0.2-1.2,0.5-1.8,0.9c-0.9-1.3-1.4-1.3-3.4,0.1c0-0.3,0.1-0.6,0.1-0.9L162.5,31.2z"/>
				<path class="st0" d="M158.1,38.2c1.7-0.8,2.7-2.5,2.6-4.4c0-1.7-0.7-2.6-2.3-2.8c-0.7-0.1-1.4,0.1-2,0.6
					c-1.4,1.1-2.1,2.9-1.9,4.7c0.1,1.3,1.3,2.3,2.6,2.2C157.5,38.4,157.8,38.3,158.1,38.2z M156.6,33.5c0.2-0.4,0.5-0.6,0.8-0.8
					c0.5-0.4,1.2-0.2,1.5,0.3c0.1,0.1,0.2,0.3,0.2,0.5c0.2,1,0,2-0.6,2.8c-0.3,0.6-1,0.9-1.7,0.7c-0.5-0.2-0.8-0.7-0.9-1.6
					C156.2,34.7,156.4,34.1,156.6,33.5L156.6,33.5z"/>
				<path class="st0" d="M151.8,32.4c0.6,0.1,0.7,0.5,0.7,1.1l1.4-0.3c0.1-1-0.5-1.9-1.4-2.1c-1.1-0.3-2.4,0.1-3.1,1.1
					c-1,1.2-1.4,2.8-1.2,4.3c0,1.1,0.9,1.9,2,1.9c1.6,0.1,3-1,3.3-2.5l-1.3-0.3c-0.2,0.3-0.3,0.6-0.5,0.8c-0.2,0.4-0.8,0.6-1.2,0.4
					c-0.3-0.1-0.6-0.4-0.7-0.8c-0.2-1,0-2.1,0.6-3C150.8,32.6,151.3,32.4,151.8,32.4z"/>
				<path class="st0" d="M145.2,37.4c0,0.6,0.4,1,0.9,1.1h0.1l0,0c0.6,0,1-0.5,1-1c0-0.6-0.5-1-1-1
					C145.6,36.4,145.1,36.8,145.2,37.4C145.1,37.3,145.1,37.4,145.2,37.4L145.2,37.4z"/>
			</g>
			<text transform="matrix(1 0 0 1 0 71.61)" class="st1 st2 st3">M</text>
			<text transform="matrix(1 0 0 1 14.3 71.61)" class="st1 st2 st3">obile app </text>
			<text transform="matrix(1 0 0 1 91.88 71.61)" class="st1 st2 st3">t</text>
			<text transform="matrix(1 0 0 1 97.75 71.61)" class="st1 st2 st3">esting f</text>
			<text transform="matrix(1 0 0 1 156.22 71.61)" class="st1 st2 st3">r</text>
			<text transform="matrix(1 0 0 1 161.99 71.61)" class="st1 st2 st3">om</text>
			<text transform="matrix(1 0 0 1 38.92 95.54)" class="st1 st2 st3">a</text>
			<text transform="matrix(1 0 0 1 48.27 95.54)" class="st1 st2 st3">n</text>
			<text transform="matrix(1 0 0 1 57.96 95.54)" class="st1 st2 st3">ywhe</text>
			<text transform="matrix(1 0 0 1 100.53 95.54)" class="st1 st2 st3">r</text>
			<text transform="matrix(1 0 0 1 106.29 95.54)" class="st1 st2 st3">e, a</text>
			<text transform="matrix(1 0 0 1 133.25 95.54)" class="st1 st2 st3">n</text>
			<text transform="matrix(1 0 0 1 142.95 95.54)" class="st1 st2 st3">ytime</text>
		</g>
	</g>
	<g class="st4">
		<path class="st5" d="M1,71.4v-11h2.2l2.6,7.8c0.2,0.7,0.4,1.3,0.5,1.6c0.1-0.4,0.3-1,0.6-1.8l2.6-7.7h2v11h-1.4v-9.2l-3.2,9.2H5.6
			L2.4,62v9.4H1z"/>
		<path class="st5" d="M13.1,67.4c0-1.5,0.4-2.6,1.2-3.3c0.7-0.6,1.5-0.9,2.5-0.9c1.1,0,2,0.4,2.7,1.1c0.7,0.7,1,1.7,1,3
			c0,1-0.2,1.8-0.5,2.4s-0.8,1-1.3,1.4s-1.2,0.5-1.9,0.5c-1.1,0-2-0.4-2.7-1.1C13.5,69.7,13.1,68.7,13.1,67.4z M14.5,67.4
			c0,1,0.2,1.8,0.7,2.3s1,0.8,1.7,0.8c0.7,0,1.2-0.3,1.7-0.8c0.4-0.5,0.7-1.3,0.7-2.3c0-1-0.2-1.7-0.7-2.2c-0.4-0.5-1-0.8-1.7-0.8
			c-0.7,0-1.2,0.3-1.7,0.8C14.8,65.6,14.5,66.3,14.5,67.4z"/>
		<path class="st5" d="M23.4,71.4h-1.3v-11h1.4v3.9c0.6-0.7,1.3-1.1,2.2-1.1c0.5,0,1,0.1,1.4,0.3c0.4,0.2,0.8,0.5,1.1,0.8
			s0.5,0.8,0.7,1.3c0.2,0.5,0.2,1,0.2,1.6c0,1.4-0.3,2.4-1,3.2c-0.7,0.7-1.5,1.1-2.4,1.1c-0.9,0-1.7-0.4-2.2-1.2V71.4z M23.4,67.3
			c0,1,0.1,1.6,0.4,2.1c0.4,0.7,1,1,1.7,1c0.6,0,1.1-0.3,1.5-0.8c0.4-0.5,0.6-1.3,0.6-2.3c0-1-0.2-1.8-0.6-2.3
			c-0.4-0.5-0.9-0.7-1.5-0.7c-0.6,0-1.1,0.3-1.5,0.8C23.6,65.6,23.4,66.3,23.4,67.3z"/>
		<path class="st5" d="M30.7,61.9v-1.6h1.4v1.6H30.7z M30.7,71.4v-8h1.4v8H30.7z"/>
		<path class="st5" d="M34.1,71.4v-11h1.4v11H34.1z"/>
		<path class="st5" d="M43,68.8l1.4,0.2c-0.2,0.8-0.6,1.4-1.2,1.9c-0.6,0.5-1.4,0.7-2.3,0.7c-1.2,0-2.1-0.4-2.8-1.1
			c-0.7-0.7-1-1.7-1-3c0-1.3,0.3-2.4,1-3.1s1.6-1.1,2.7-1.1c1.1,0,1.9,0.4,2.6,1.1s1,1.7,1,3.1c0,0.1,0,0.2,0,0.4h-5.9
			c0.1,0.9,0.3,1.5,0.7,2c0.4,0.5,1,0.7,1.7,0.7c0.5,0,0.9-0.1,1.3-0.4C42.5,69.8,42.8,69.4,43,68.8z M38.6,66.6H43
			c-0.1-0.7-0.2-1.2-0.5-1.5c-0.4-0.5-1-0.8-1.7-0.8c-0.6,0-1.1,0.2-1.6,0.6S38.6,65.9,38.6,66.6z"/>
		<path class="st5" d="M55.6,70.4c-0.5,0.4-1,0.7-1.4,0.9c-0.5,0.2-1,0.3-1.5,0.3c-0.9,0-1.5-0.2-2-0.6s-0.7-1-0.7-1.6
			c0-0.4,0.1-0.7,0.3-1.1c0.2-0.3,0.4-0.6,0.7-0.8s0.6-0.3,1-0.4c0.3-0.1,0.7-0.1,1.2-0.2c1.1-0.1,1.9-0.3,2.4-0.5
			c0-0.2,0-0.3,0-0.4c0-0.5-0.1-0.9-0.4-1.2c-0.3-0.3-0.9-0.5-1.5-0.5c-0.6,0-1.1,0.1-1.4,0.3s-0.5,0.6-0.7,1.2l-1.3-0.2
			c0.1-0.6,0.3-1,0.6-1.4c0.3-0.3,0.7-0.6,1.2-0.8c0.5-0.2,1.1-0.3,1.8-0.3c0.7,0,1.2,0.1,1.7,0.2c0.4,0.2,0.7,0.4,0.9,0.6
			c0.2,0.2,0.3,0.5,0.4,0.9c0,0.2,0.1,0.6,0.1,1.2V68c0,1.3,0,2.1,0.1,2.4c0.1,0.3,0.2,0.7,0.3,1h-1.4
			C55.7,71.1,55.6,70.7,55.6,70.4z M55.5,67.4c-0.5,0.2-1.2,0.4-2.2,0.5c-0.6,0.1-0.9,0.2-1.2,0.3c-0.2,0.1-0.4,0.2-0.5,0.4
			s-0.2,0.4-0.2,0.6c0,0.4,0.1,0.7,0.4,0.9c0.3,0.2,0.7,0.4,1.2,0.4c0.5,0,1-0.1,1.4-0.3c0.4-0.2,0.7-0.5,0.9-0.9
			c0.1-0.3,0.2-0.8,0.2-1.4V67.4z"/>
		<path class="st5" d="M58.9,71.4v-8h1.2v1.1c0.6-0.9,1.4-1.3,2.5-1.3c0.5,0,0.9,0.1,1.3,0.3c0.4,0.2,0.7,0.4,0.9,0.7s0.3,0.6,0.4,1
			c0,0.3,0.1,0.7,0.1,1.3v4.9h-1.4v-4.8c0-0.6-0.1-1-0.2-1.2s-0.3-0.5-0.6-0.7c-0.3-0.2-0.6-0.2-0.9-0.2c-0.6,0-1.1,0.2-1.5,0.5
			c-0.4,0.4-0.6,1.1-0.6,2.1v4.4H58.9z"/>
		<path class="st5" d="M72.7,71.4v-1c-0.5,0.8-1.2,1.2-2.2,1.2c-0.6,0-1.2-0.2-1.8-0.5c-0.5-0.4-0.9-0.8-1.2-1.5S67,68.2,67,67.4
			c0-0.8,0.1-1.5,0.4-2.2c0.3-0.6,0.7-1.1,1.2-1.5c0.5-0.3,1.1-0.5,1.8-0.5c0.5,0,0.9,0.1,1.3,0.3c0.4,0.2,0.7,0.5,0.9,0.8v-3.9h1.3
			v11H72.7z M68.4,67.4c0,1,0.2,1.8,0.6,2.3s0.9,0.8,1.5,0.8c0.6,0,1.1-0.2,1.5-0.7c0.4-0.5,0.6-1.2,0.6-2.2c0-1.1-0.2-1.9-0.6-2.4
			c-0.4-0.5-0.9-0.8-1.6-0.8c-0.6,0-1.1,0.2-1.5,0.7S68.4,66.3,68.4,67.4z"/>
		<path class="st5" d="M81.8,71.4l-2.4-8h1.4L82,68l0.5,1.7c0-0.1,0.2-0.6,0.4-1.6l1.3-4.7h1.4l1.2,4.6l0.4,1.5l0.5-1.5l1.4-4.6h1.3
			l-2.5,8h-1.4l-1.3-4.8l-0.3-1.4l-1.6,6.1H81.8z"/>
		<path class="st5" d="M96.9,68.8l1.4,0.2c-0.2,0.8-0.6,1.4-1.2,1.9s-1.4,0.7-2.3,0.7c-1.2,0-2.1-0.4-2.8-1.1c-0.7-0.7-1-1.7-1-3
			c0-1.3,0.3-2.4,1-3.1s1.6-1.1,2.7-1.1c1.1,0,1.9,0.4,2.6,1.1s1,1.7,1,3.1c0,0.1,0,0.2,0,0.4h-5.9c0.1,0.9,0.3,1.5,0.7,2
			c0.4,0.5,1,0.7,1.7,0.7c0.5,0,0.9-0.1,1.3-0.4C96.4,69.8,96.6,69.4,96.9,68.8z M92.4,66.6h4.4c-0.1-0.7-0.2-1.2-0.5-1.5
			c-0.4-0.5-1-0.8-1.7-0.8c-0.6,0-1.1,0.2-1.6,0.6S92.5,65.9,92.4,66.6z"/>
		<path class="st5" d="M101.2,71.4h-1.3v-11h1.4v3.9c0.6-0.7,1.3-1.1,2.2-1.1c0.5,0,1,0.1,1.4,0.3c0.4,0.2,0.8,0.5,1.1,0.8
			c0.3,0.4,0.5,0.8,0.7,1.3c0.2,0.5,0.2,1,0.2,1.6c0,1.4-0.3,2.4-1,3.2c-0.7,0.7-1.5,1.1-2.4,1.1c-0.9,0-1.7-0.4-2.2-1.2V71.4z
			 M101.2,67.3c0,1,0.1,1.6,0.4,2.1c0.4,0.7,1,1,1.7,1c0.6,0,1.1-0.3,1.5-0.8c0.4-0.5,0.6-1.3,0.6-2.3c0-1-0.2-1.8-0.6-2.3
			c-0.4-0.5-0.9-0.7-1.5-0.7c-0.6,0-1.1,0.3-1.5,0.8C101.4,65.6,101.2,66.3,101.2,67.3z"/>
		<path class="st5" d="M118,70.4c-0.5,0.4-1,0.7-1.4,0.9c-0.5,0.2-1,0.3-1.5,0.3c-0.9,0-1.5-0.2-2-0.6c-0.5-0.4-0.7-1-0.7-1.6
			c0-0.4,0.1-0.7,0.3-1.1c0.2-0.3,0.4-0.6,0.7-0.8c0.3-0.2,0.6-0.3,1-0.4c0.3-0.1,0.7-0.1,1.2-0.2c1.1-0.1,1.9-0.3,2.4-0.5
			c0-0.2,0-0.3,0-0.4c0-0.5-0.1-0.9-0.4-1.2c-0.3-0.3-0.9-0.5-1.5-0.5c-0.6,0-1.1,0.1-1.4,0.3s-0.5,0.6-0.7,1.2l-1.3-0.2
			c0.1-0.6,0.3-1,0.6-1.4s0.7-0.6,1.2-0.8c0.5-0.2,1.1-0.3,1.8-0.3c0.7,0,1.2,0.1,1.7,0.2c0.4,0.2,0.7,0.4,0.9,0.6
			c0.2,0.2,0.3,0.5,0.4,0.9c0,0.2,0.1,0.6,0.1,1.2V68c0,1.3,0,2.1,0.1,2.4c0.1,0.3,0.2,0.7,0.3,1h-1.4C118.1,71.1,118,70.7,118,70.4
			z M117.9,67.4c-0.5,0.2-1.2,0.4-2.2,0.5c-0.6,0.1-0.9,0.2-1.2,0.3c-0.2,0.1-0.4,0.2-0.5,0.4s-0.2,0.4-0.2,0.6
			c0,0.4,0.1,0.7,0.4,0.9c0.3,0.2,0.7,0.4,1.2,0.4c0.5,0,1-0.1,1.4-0.3c0.4-0.2,0.7-0.5,0.9-0.9c0.1-0.3,0.2-0.8,0.2-1.4V67.4z"/>
		<path class="st5" d="M121.3,74.4v-11h1.2v1c0.3-0.4,0.6-0.7,1-0.9c0.4-0.2,0.8-0.3,1.3-0.3c0.7,0,1.3,0.2,1.8,0.5
			c0.5,0.4,0.9,0.8,1.2,1.5c0.3,0.6,0.4,1.3,0.4,2.1c0,0.8-0.1,1.5-0.4,2.2c-0.3,0.7-0.7,1.2-1.3,1.5c-0.6,0.3-1.1,0.5-1.8,0.5
			c-0.5,0-0.9-0.1-1.2-0.3c-0.4-0.2-0.7-0.4-0.9-0.7v3.9H121.3z M122.5,67.4c0,1,0.2,1.8,0.6,2.3c0.4,0.5,0.9,0.7,1.5,0.7
			c0.6,0,1.1-0.3,1.5-0.8s0.6-1.3,0.6-2.4c0-1-0.2-1.8-0.6-2.3c-0.4-0.5-0.9-0.8-1.5-0.8c-0.6,0-1.1,0.3-1.5,0.8
			C122.8,65.6,122.5,66.4,122.5,67.4z"/>
		<path class="st5" d="M129.9,74.4v-11h1.2v1c0.3-0.4,0.6-0.7,1-0.9c0.4-0.2,0.8-0.3,1.3-0.3c0.7,0,1.3,0.2,1.8,0.5
			c0.5,0.4,0.9,0.8,1.2,1.5c0.3,0.6,0.4,1.3,0.4,2.1c0,0.8-0.1,1.5-0.4,2.2c-0.3,0.7-0.7,1.2-1.3,1.5c-0.6,0.3-1.1,0.5-1.8,0.5
			c-0.4,0-0.9-0.1-1.2-0.3c-0.4-0.2-0.7-0.4-0.9-0.7v3.9H129.9z M131.1,67.4c0,1,0.2,1.8,0.6,2.3c0.4,0.5,0.9,0.7,1.5,0.7
			c0.6,0,1.1-0.3,1.5-0.8s0.6-1.3,0.6-2.4c0-1-0.2-1.8-0.6-2.3c-0.4-0.5-0.9-0.8-1.5-0.8c-0.6,0-1.1,0.3-1.5,0.8
			C131.3,65.6,131.1,66.4,131.1,67.4z"/>
		<path class="st5" d="M145.6,70.1l0.2,1.2c-0.4,0.1-0.7,0.1-1,0.1c-0.5,0-0.9-0.1-1.1-0.2c-0.3-0.2-0.5-0.4-0.6-0.6
			c-0.1-0.3-0.2-0.8-0.2-1.6v-4.6h-1v-1.1h1v-2l1.3-0.8v2.8h1.4v1.1h-1.4v4.7c0,0.4,0,0.6,0.1,0.7c0,0.1,0.1,0.2,0.2,0.3
			c0.1,0.1,0.3,0.1,0.5,0.1C145.2,70.2,145.4,70.2,145.6,70.1z"/>
		<path class="st5" d="M152.4,68.8l1.4,0.2c-0.2,0.8-0.6,1.4-1.2,1.9c-0.6,0.5-1.4,0.7-2.3,0.7c-1.2,0-2.1-0.4-2.8-1.1
			c-0.7-0.7-1-1.7-1-3c0-1.3,0.3-2.4,1-3.1s1.6-1.1,2.7-1.1c1.1,0,1.9,0.4,2.6,1.1s1,1.7,1,3.1c0,0.1,0,0.2,0,0.4h-5.9
			c0,0.9,0.3,1.5,0.7,2c0.4,0.5,1,0.7,1.7,0.7c0.5,0,0.9-0.1,1.3-0.4C151.9,69.8,152.2,69.4,152.4,68.8z M148,66.6h4.5
			c-0.1-0.7-0.2-1.2-0.5-1.5c-0.4-0.5-1-0.8-1.7-0.8c-0.6,0-1.1,0.2-1.6,0.6S148,65.9,148,66.6z"/>
		<path class="st5" d="M155,69l1.3-0.2c0.1,0.5,0.3,0.9,0.6,1.2s0.8,0.4,1.4,0.4c0.6,0,1.1-0.1,1.4-0.4c0.3-0.3,0.5-0.5,0.5-0.9
			c0-0.3-0.1-0.5-0.4-0.7c-0.2-0.1-0.6-0.3-1.4-0.5c-1-0.3-1.7-0.5-2.1-0.6s-0.7-0.4-0.9-0.8c-0.2-0.3-0.3-0.7-0.3-1.1
			c0-0.4,0.1-0.7,0.2-1s0.4-0.6,0.7-0.8c0.2-0.2,0.5-0.3,0.9-0.4s0.8-0.2,1.2-0.2c0.6,0,1.2,0.1,1.6,0.3c0.5,0.2,0.8,0.4,1,0.7
			c0.2,0.3,0.4,0.7,0.5,1.2l-1.3,0.2c-0.1-0.4-0.2-0.7-0.5-1c-0.3-0.2-0.7-0.3-1.2-0.3c-0.6,0-1.1,0.1-1.3,0.3
			c-0.3,0.2-0.4,0.4-0.4,0.7c0,0.2,0.1,0.3,0.2,0.5c0.1,0.1,0.3,0.3,0.5,0.4c0.1,0,0.5,0.2,1.2,0.3c1,0.3,1.6,0.5,2,0.6
			c0.4,0.2,0.7,0.4,0.9,0.7s0.3,0.7,0.3,1.2c0,0.5-0.1,0.9-0.4,1.3s-0.6,0.7-1.1,0.9s-1.1,0.3-1.7,0.3c-1,0-1.8-0.2-2.4-0.6
			C155.5,70.5,155.1,69.8,155,69z"/>
		<path class="st5" d="M166.1,70.1l0.2,1.2c-0.4,0.1-0.7,0.1-1,0.1c-0.5,0-0.9-0.1-1.1-0.2c-0.3-0.2-0.5-0.4-0.6-0.6
			c-0.1-0.3-0.2-0.8-0.2-1.6v-4.6h-1v-1.1h1v-2l1.3-0.8v2.8h1.4v1.1h-1.4v4.7c0,0.4,0,0.6,0.1,0.7c0,0.1,0.1,0.2,0.2,0.3
			c0.1,0.1,0.3,0.1,0.5,0.1C165.7,70.2,165.9,70.2,166.1,70.1z"/>
		<path class="st5" d="M167.5,61.9v-1.6h1.4v1.6H167.5z M167.5,71.4v-8h1.4v8H167.5z"/>
		<path class="st5" d="M170.9,71.4v-8h1.2v1.1c0.6-0.9,1.4-1.3,2.5-1.3c0.5,0,0.9,0.1,1.3,0.3c0.4,0.2,0.7,0.4,0.9,0.7
			c0.2,0.3,0.3,0.6,0.4,1c0,0.3,0.1,0.7,0.1,1.3v4.9H176v-4.8c0-0.6-0.1-1-0.2-1.2s-0.3-0.5-0.6-0.7c-0.3-0.2-0.6-0.2-0.9-0.2
			c-0.6,0-1.1,0.2-1.5,0.5c-0.4,0.4-0.6,1.1-0.6,2.1v4.4H170.9z"/>
		<path class="st5" d="M179.2,72l1.3,0.2c0.1,0.4,0.2,0.7,0.5,0.9c0.3,0.3,0.8,0.4,1.4,0.4c0.6,0,1.1-0.1,1.4-0.4s0.6-0.6,0.7-1.1
			c0.1-0.3,0.1-0.9,0.1-1.7c-0.6,0.7-1.3,1-2.2,1c-1.1,0-1.9-0.4-2.5-1.2c-0.6-0.8-0.9-1.7-0.9-2.8c0-0.8,0.1-1.5,0.4-2.1
			c0.3-0.6,0.7-1.1,1.2-1.5c0.5-0.3,1.1-0.5,1.8-0.5c0.9,0,1.7,0.4,2.3,1.1v-1h1.2v6.9c0,1.2-0.1,2.1-0.4,2.6
			c-0.3,0.5-0.7,0.9-1.2,1.2c-0.5,0.3-1.2,0.5-2,0.5c-1,0-1.7-0.2-2.3-0.6S179.1,72.9,179.2,72z M180.3,67.2c0,1,0.2,1.8,0.6,2.3
			c0.4,0.5,0.9,0.7,1.6,0.7c0.6,0,1.1-0.2,1.6-0.7s0.6-1.2,0.6-2.2c0-1-0.2-1.7-0.6-2.2c-0.4-0.5-1-0.7-1.6-0.7
			c-0.6,0-1.1,0.2-1.5,0.7C180.5,65.5,180.3,66.3,180.3,67.2z"/>
	</g>
	<g class="st4">
		<path class="st5" d="M24.3,89.8v-6.9h-1.2v-1.1h1.2V81c0-0.5,0-0.9,0.1-1.2c0.1-0.4,0.4-0.6,0.7-0.9c0.3-0.2,0.8-0.3,1.4-0.3
			c0.4,0,0.8,0,1.3,0.1l-0.2,1.2c-0.3,0-0.5-0.1-0.8-0.1c-0.4,0-0.7,0.1-0.9,0.3c-0.2,0.2-0.3,0.5-0.3,1v0.7h1.6v1.1h-1.6v6.9H24.3z
			"/>
		<path class="st5" d="M28.3,89.8v-8h1.2v1.2c0.3-0.6,0.6-0.9,0.9-1.1c0.3-0.2,0.6-0.3,0.9-0.3c0.5,0,0.9,0.1,1.4,0.4l-0.5,1.3
			c-0.3-0.2-0.7-0.3-1-0.3c-0.3,0-0.6,0.1-0.8,0.3c-0.2,0.2-0.4,0.4-0.5,0.7c-0.2,0.5-0.2,1-0.2,1.6v4.2H28.3z"/>
		<path class="st5" d="M32.9,85.8c0-1.5,0.4-2.6,1.2-3.3c0.7-0.6,1.5-0.9,2.5-0.9c1.1,0,2,0.4,2.7,1.1c0.7,0.7,1,1.7,1,3
			c0,1-0.2,1.8-0.5,2.4s-0.8,1-1.3,1.4S37.3,90,36.6,90c-1.1,0-2-0.4-2.7-1.1C33.2,88.2,32.9,87.2,32.9,85.8z M34.3,85.8
			c0,1,0.2,1.8,0.7,2.3s1,0.8,1.7,0.8c0.7,0,1.2-0.3,1.7-0.8c0.4-0.5,0.7-1.3,0.7-2.3c0-1-0.2-1.7-0.7-2.2c-0.4-0.5-1-0.8-1.7-0.8
			c-0.7,0-1.2,0.3-1.7,0.8C34.5,84.1,34.3,84.8,34.3,85.8z"/>
		<path class="st5" d="M41.9,89.8v-8h1.2V83c0.3-0.4,0.6-0.7,1-0.9c0.4-0.2,0.9-0.4,1.4-0.4c0.6,0,1.1,0.1,1.5,0.4s0.6,0.6,0.8,1
			c0.6-0.9,1.5-1.4,2.5-1.4c0.8,0,1.4,0.2,1.8,0.7c0.4,0.4,0.6,1.1,0.6,2v5.5h-1.3v-5c0-0.5,0-0.9-0.1-1.2s-0.2-0.4-0.5-0.6
			c-0.2-0.1-0.5-0.2-0.8-0.2c-0.6,0-1,0.2-1.4,0.6c-0.4,0.4-0.6,1-0.6,1.8v4.6h-1.4v-5.2c0-0.6-0.1-1.1-0.3-1.4
			c-0.2-0.3-0.6-0.5-1.1-0.5c-0.4,0-0.7,0.1-1.1,0.3s-0.6,0.5-0.7,0.9c-0.1,0.4-0.2,0.9-0.2,1.7v4.1H41.9z"/>
		<path class="st5" d="M64.2,88.8c-0.5,0.4-1,0.7-1.4,0.9c-0.5,0.2-1,0.3-1.5,0.3c-0.9,0-1.5-0.2-2-0.6s-0.7-1-0.7-1.6
			c0-0.4,0.1-0.7,0.3-1.1c0.2-0.3,0.4-0.6,0.7-0.8s0.6-0.3,1-0.4c0.3-0.1,0.7-0.1,1.2-0.2c1.1-0.1,1.9-0.3,2.4-0.5
			c0-0.2,0-0.3,0-0.4c0-0.5-0.1-0.9-0.4-1.2c-0.3-0.3-0.9-0.5-1.5-0.5c-0.6,0-1.1,0.1-1.4,0.3s-0.5,0.6-0.7,1.2l-1.3-0.2
			c0.1-0.6,0.3-1,0.6-1.4c0.3-0.3,0.7-0.6,1.2-0.8c0.5-0.2,1.1-0.3,1.8-0.3c0.7,0,1.2,0.1,1.7,0.2c0.4,0.2,0.7,0.4,0.9,0.6
			c0.2,0.2,0.3,0.5,0.4,0.9c0,0.2,0.1,0.6,0.1,1.2v1.8c0,1.3,0,2.1,0.1,2.4c0.1,0.3,0.2,0.7,0.3,1h-1.4
			C64.3,89.5,64.3,89.2,64.2,88.8z M64.1,85.8c-0.5,0.2-1.2,0.4-2.2,0.5c-0.6,0.1-0.9,0.2-1.2,0.3c-0.2,0.1-0.4,0.2-0.5,0.4
			S60,87.5,60,87.7c0,0.4,0.1,0.7,0.4,0.9c0.3,0.2,0.7,0.4,1.2,0.4c0.5,0,1-0.1,1.4-0.3c0.4-0.2,0.7-0.5,0.9-0.9
			c0.1-0.3,0.2-0.8,0.2-1.4V85.8z"/>
		<path class="st5" d="M67.6,89.8v-8h1.2V83c0.6-0.9,1.4-1.3,2.5-1.3c0.5,0,0.9,0.1,1.3,0.3c0.4,0.2,0.7,0.4,0.9,0.7s0.3,0.6,0.4,1
			c0,0.3,0.1,0.7,0.1,1.3v4.9h-1.4V85c0-0.6-0.1-1-0.2-1.2s-0.3-0.5-0.6-0.7c-0.3-0.2-0.6-0.2-0.9-0.2c-0.6,0-1.1,0.2-1.5,0.5
			c-0.4,0.4-0.6,1.1-0.6,2.1v4.4H67.6z"/>
		<path class="st5" d="M76,92.9l-0.2-1.3c0.3,0.1,0.6,0.1,0.8,0.1c0.3,0,0.5,0,0.7-0.1c0.2-0.1,0.3-0.2,0.4-0.4
			c0.1-0.1,0.2-0.5,0.4-1c0-0.1,0.1-0.2,0.1-0.3l-3-8h1.5l1.7,4.6c0.2,0.6,0.4,1.2,0.6,1.8c0.2-0.6,0.3-1.2,0.6-1.8l1.7-4.6h1.4
			l-3,8.1c-0.3,0.9-0.6,1.5-0.8,1.8c-0.2,0.4-0.5,0.8-0.8,1s-0.7,0.3-1.1,0.3C76.7,93.1,76.4,93,76,92.9z"/>
		<path class="st5" d="M85.3,89.8l-2.4-8h1.4l1.3,4.6l0.5,1.7c0-0.1,0.2-0.6,0.4-1.6l1.3-4.7H89l1.2,4.6l0.4,1.5l0.5-1.5l1.4-4.6
			h1.3l-2.5,8h-1.4l-1.3-4.8l-0.3-1.4l-1.6,6.1H85.3z"/>
		<path class="st5" d="M94.9,89.8v-11h1.4v3.9c0.6-0.7,1.4-1.1,2.4-1.1c0.6,0,1.1,0.1,1.5,0.3c0.4,0.2,0.7,0.6,0.9,1
			c0.2,0.4,0.3,1,0.3,1.8v5.1H100v-5.1c0-0.7-0.1-1.2-0.4-1.5c-0.3-0.3-0.7-0.5-1.2-0.5c-0.4,0-0.8,0.1-1.1,0.3
			c-0.4,0.2-0.6,0.5-0.8,0.8s-0.2,0.8-0.2,1.5v4.4H94.9z"/>
		<path class="st5" d="M108.9,87.3l1.4,0.2c-0.2,0.8-0.6,1.4-1.2,1.9c-0.6,0.5-1.4,0.7-2.3,0.7c-1.2,0-2.1-0.4-2.8-1.1
			c-0.7-0.7-1-1.7-1-3c0-1.3,0.3-2.4,1-3.1s1.6-1.1,2.7-1.1c1.1,0,1.9,0.4,2.6,1.1s1,1.7,1,3.1c0,0.1,0,0.2,0,0.4h-5.9
			c0,0.9,0.3,1.5,0.7,2c0.4,0.5,1,0.7,1.7,0.7c0.5,0,0.9-0.1,1.3-0.4C108.4,88.2,108.7,87.8,108.9,87.3z M104.5,85.1h4.5
			c-0.1-0.7-0.2-1.2-0.5-1.5c-0.4-0.5-1-0.8-1.7-0.8c-0.6,0-1.1,0.2-1.6,0.6S104.5,84.4,104.5,85.1z"/>
		<path class="st5" d="M112,89.8v-8h1.2v1.2c0.3-0.6,0.6-0.9,0.9-1.1c0.3-0.2,0.6-0.3,0.9-0.3c0.5,0,0.9,0.1,1.4,0.4l-0.5,1.3
			c-0.3-0.2-0.7-0.3-1-0.3c-0.3,0-0.6,0.1-0.8,0.3s-0.4,0.4-0.5,0.7c-0.2,0.5-0.2,1-0.2,1.6v4.2H112z"/>
		<path class="st5" d="M122.6,87.3l1.4,0.2c-0.2,0.8-0.6,1.4-1.2,1.9s-1.4,0.7-2.3,0.7c-1.2,0-2.1-0.4-2.8-1.1s-1-1.7-1-3
			c0-1.3,0.3-2.4,1-3.1c0.7-0.7,1.6-1.1,2.7-1.1c1.1,0,1.9,0.4,2.6,1.1c0.7,0.7,1,1.7,1,3.1c0,0.1,0,0.2,0,0.4H118
			c0,0.9,0.3,1.5,0.7,2c0.4,0.5,1,0.7,1.7,0.7c0.5,0,0.9-0.1,1.3-0.4C122.1,88.2,122.4,87.8,122.6,87.3z M118.1,85.1h4.5
			c-0.1-0.7-0.2-1.2-0.5-1.5c-0.4-0.5-1-0.8-1.7-0.8c-0.6,0-1.1,0.2-1.6,0.6C118.4,83.8,118.2,84.4,118.1,85.1z"/>
		<path class="st5" d="M126,89.8v-1.5h1.5v1.5c0,0.6-0.1,1-0.3,1.4c-0.2,0.3-0.5,0.6-1,0.8l-0.4-0.6c0.3-0.1,0.5-0.3,0.6-0.6
			c0.1-0.2,0.2-0.6,0.2-1H126z"/>
		<path class="st5" d="M139.4,88.8c-0.5,0.4-1,0.7-1.4,0.9c-0.5,0.2-1,0.3-1.5,0.3c-0.9,0-1.5-0.2-2-0.6s-0.7-1-0.7-1.6
			c0-0.4,0.1-0.7,0.3-1.1c0.2-0.3,0.4-0.6,0.7-0.8s0.6-0.3,1-0.4c0.3-0.1,0.7-0.1,1.2-0.2c1.1-0.1,1.9-0.3,2.4-0.5
			c0-0.2,0-0.3,0-0.4c0-0.5-0.1-0.9-0.4-1.2c-0.3-0.3-0.9-0.5-1.5-0.5c-0.6,0-1.1,0.1-1.4,0.3s-0.5,0.6-0.7,1.2l-1.3-0.2
			c0.1-0.6,0.3-1,0.6-1.4c0.3-0.3,0.7-0.6,1.2-0.8s1.1-0.3,1.8-0.3c0.7,0,1.2,0.1,1.7,0.2c0.4,0.2,0.7,0.4,0.9,0.6
			c0.2,0.2,0.3,0.5,0.4,0.9c0,0.2,0.1,0.6,0.1,1.2v1.8c0,1.3,0,2.1,0.1,2.4c0.1,0.3,0.2,0.7,0.3,1h-1.4
			C139.5,89.5,139.4,89.2,139.4,88.8z M139.3,85.8c-0.5,0.2-1.2,0.4-2.2,0.5c-0.6,0.1-0.9,0.2-1.2,0.3c-0.2,0.1-0.4,0.2-0.5,0.4
			s-0.2,0.4-0.2,0.6c0,0.4,0.1,0.7,0.4,0.9c0.3,0.2,0.7,0.4,1.2,0.4c0.5,0,1-0.1,1.4-0.3s0.7-0.5,0.9-0.9c0.1-0.3,0.2-0.8,0.2-1.4
			V85.8z"/>
		<path class="st5" d="M142.7,89.8v-8h1.2V83c0.6-0.9,1.4-1.3,2.5-1.3c0.5,0,0.9,0.1,1.3,0.3c0.4,0.2,0.7,0.4,0.9,0.7s0.3,0.6,0.4,1
			c0.1,0.3,0.1,0.7,0.1,1.3v4.9h-1.4V85c0-0.6-0.1-1-0.2-1.2c-0.1-0.3-0.3-0.5-0.6-0.7c-0.3-0.2-0.6-0.2-0.9-0.2
			c-0.6,0-1.1,0.2-1.5,0.5s-0.6,1.1-0.6,2.1v4.4H142.7z"/>
		<path class="st5" d="M151.2,92.9l-0.2-1.3c0.3,0.1,0.6,0.1,0.8,0.1c0.3,0,0.5,0,0.7-0.1c0.2-0.1,0.3-0.2,0.4-0.4
			c0.1-0.1,0.2-0.5,0.4-1c0-0.1,0.1-0.2,0.1-0.3l-3-8h1.5l1.7,4.6c0.2,0.6,0.4,1.2,0.6,1.8c0.2-0.6,0.3-1.2,0.6-1.8l1.7-4.6h1.4
			l-3,8.1c-0.3,0.9-0.6,1.5-0.8,1.8c-0.2,0.4-0.5,0.8-0.8,1s-0.7,0.3-1.1,0.3C151.8,93.1,151.5,93,151.2,92.9z"/>
		<path class="st5" d="M161.9,88.6l0.2,1.2c-0.4,0.1-0.7,0.1-1,0.1c-0.5,0-0.9-0.1-1.1-0.2c-0.3-0.2-0.5-0.4-0.6-0.6
			c-0.1-0.3-0.2-0.8-0.2-1.6v-4.6h-1v-1.1h1v-2l1.3-0.8v2.8h1.4v1.1h-1.4v4.7c0,0.4,0,0.6,0.1,0.7c0,0.1,0.1,0.2,0.2,0.3
			c0.1,0.1,0.3,0.1,0.5,0.1C161.5,88.7,161.7,88.7,161.9,88.6z"/>
		<path class="st5" d="M163.2,80.4v-1.6h1.4v1.6H163.2z M163.2,89.8v-8h1.4v8H163.2z"/>
		<path class="st5" d="M166.7,89.8v-8h1.2V83c0.3-0.4,0.6-0.7,1-0.9c0.4-0.2,0.9-0.4,1.4-0.4c0.6,0,1.1,0.1,1.5,0.4
			c0.4,0.2,0.6,0.6,0.8,1c0.6-0.9,1.5-1.4,2.5-1.4c0.8,0,1.4,0.2,1.8,0.7s0.6,1.1,0.6,2v5.5h-1.3v-5c0-0.5,0-0.9-0.1-1.2
			s-0.2-0.4-0.5-0.6c-0.2-0.1-0.5-0.2-0.8-0.2c-0.6,0-1,0.2-1.4,0.6c-0.4,0.4-0.6,1-0.6,1.8v4.6h-1.4v-5.2c0-0.6-0.1-1.1-0.3-1.4
			c-0.2-0.3-0.6-0.5-1.1-0.5c-0.4,0-0.7,0.1-1.1,0.3c-0.3,0.2-0.6,0.5-0.7,0.9c-0.1,0.4-0.2,0.9-0.2,1.7v4.1H166.7z"/>
		<path class="st5" d="M184.9,87.3l1.4,0.2c-0.2,0.8-0.6,1.4-1.2,1.9c-0.6,0.5-1.4,0.7-2.3,0.7c-1.2,0-2.1-0.4-2.8-1.1
			c-0.7-0.7-1-1.7-1-3c0-1.3,0.3-2.4,1-3.1s1.6-1.1,2.7-1.1c1.1,0,1.9,0.4,2.6,1.1s1,1.7,1,3.1c0,0.1,0,0.2,0,0.4h-5.9
			c0,0.9,0.3,1.5,0.7,2c0.4,0.5,1,0.7,1.7,0.7c0.5,0,0.9-0.1,1.3-0.4C184.4,88.2,184.7,87.8,184.9,87.3z M180.5,85.1h4.5
			c-0.1-0.7-0.2-1.2-0.5-1.5c-0.4-0.5-1-0.8-1.7-0.8c-0.6,0-1.1,0.2-1.6,0.6S180.5,84.4,180.5,85.1z"/>
	</g>
</g>
</svg>
